<svg width="9.8125rem" height="10.4375rem" viewBox="0 0 157 167" fill="none" xmlns="http://www.w3.org/2000/svg">
<g opacity="0.4">
<path opacity="0.1" d="M21.771 166.258L4.97752 153.159C3.76953 152.449 3.91164 151.241 5.30912 150.412L122.2 114.74C123.598 113.935 125.729 113.84 126.937 114.551L143.731 127.649C144.939 128.36 144.797 129.568 143.399 130.397L26.5082 166.068C25.1107 166.874 22.9789 166.968 21.771 166.258Z" fill="#AFB6E5"/>
<path opacity="0.16" d="M21.7225 166.045L5.26068 153.136C4.07638 152.449 4.21849 151.241 5.59229 150.436L122.199 114.93C123.573 114.125 125.657 114.054 126.865 114.741L143.327 127.65C144.511 128.336 144.369 129.544 142.995 130.35L26.3887 165.855C25.0149 166.661 22.9305 166.732 21.7225 166.045Z" fill="#AFB6E5"/>
<path opacity="0.21" d="M21.7013 165.808L5.57108 153.088C4.38677 152.402 4.55258 151.217 5.90268 150.436L122.249 115.096C123.599 114.314 125.66 114.22 126.82 114.906L142.95 127.626C144.135 128.313 143.969 129.497 142.619 130.279L26.2727 165.618C24.9226 166.4 22.8619 166.495 21.7013 165.808Z" fill="#AFB6E5"/>
<path opacity="0.27" d="M21.6743 165.594L5.89932 153.088C4.73871 152.425 4.88082 151.264 6.23093 150.483L122.293 115.309C123.619 114.551 125.633 114.456 126.793 115.119L142.568 127.626C143.729 128.289 143.587 129.449 142.237 130.231L26.1746 165.405C24.8482 166.163 22.8349 166.258 21.6743 165.594Z" fill="#AFB6E5"/>
<path opacity="0.33" d="M21.63 165.381L6.18665 153.065C5.04972 152.401 5.19185 151.264 6.49458 150.506L122.272 115.498C123.575 114.74 125.565 114.669 126.702 115.309L142.145 127.626C143.282 128.289 143.14 129.426 141.837 130.184L26.0593 165.192C24.7566 165.95 22.7669 166.021 21.63 165.381Z" fill="#AFB6E5"/>
<path opacity="0.39" d="M21.6067 165.145L6.51865 153.041C5.4054 152.401 5.54753 151.288 6.82658 150.53L122.32 115.664C123.599 114.93 125.541 114.835 126.655 115.475L141.743 127.578C142.856 128.218 142.714 129.331 141.435 130.089L25.9413 164.955C24.6622 165.689 22.72 165.784 21.6067 165.145Z" fill="#AFB6E5"/>
<path opacity="0.44" d="M21.5817 164.931L6.82526 153.017C5.7357 152.378 5.87783 151.288 7.13319 150.554L122.342 115.854C123.598 115.12 125.516 115.049 126.606 115.688L141.362 127.602C142.452 128.242 142.31 129.331 141.054 130.066L25.8452 164.766C24.5898 165.5 22.6713 165.571 21.5817 164.931Z" fill="#AFB6E5"/>
<path opacity="0.5" d="M21.5352 164.718L7.13401 152.994C6.06813 152.378 6.18654 151.288 7.4419 150.578L122.367 116.043C123.599 115.333 125.47 115.262 126.536 115.877L140.937 127.602C142.003 128.218 141.884 129.307 140.629 130.018L25.7039 164.552C24.4722 165.263 22.601 165.334 21.5352 164.718Z" fill="#AFB6E5"/>
<path opacity="0.56" d="M21.5085 164.481L7.43891 152.97C6.39672 152.354 6.51517 151.312 7.72317 150.601L122.364 116.233C123.572 115.522 125.419 115.451 126.462 116.067L140.531 127.578C141.573 128.194 141.455 129.236 140.247 129.947L25.6062 164.316C24.3982 165.026 22.5506 165.097 21.5085 164.481Z" fill="#AFB6E5"/>
<path opacity="0.61" d="M21.4871 164.268L7.77285 152.946C6.75435 152.354 6.8728 151.312 8.05711 150.625L122.414 116.422C123.598 115.735 125.398 115.664 126.44 116.256L140.154 127.578C141.173 128.17 141.055 129.213 139.87 129.9L25.5138 164.102C24.3294 164.789 22.5293 164.86 21.4871 164.268Z" fill="#AFB6E5"/>
<path opacity="0.67" d="M21.4405 164.055L8.05786 152.922C7.03936 152.33 7.18147 151.312 8.34208 150.648L122.438 116.612C123.599 115.948 125.375 115.877 126.37 116.446L139.753 127.578C140.771 128.17 140.629 129.189 139.468 129.852L25.3724 163.889C24.2118 164.552 22.4353 164.623 21.4405 164.055Z" fill="#AFB6E5"/>
<path opacity="0.73" d="M21.4154 163.819L8.38807 152.9C7.39325 152.331 7.51167 151.336 8.67229 150.673L122.484 116.802C123.621 116.139 125.35 116.068 126.345 116.636L139.372 127.555C140.367 128.124 140.225 129.119 139.088 129.782L25.2762 163.653C24.1393 164.316 22.4102 164.387 21.4154 163.819Z" fill="#AFB6E5"/>
</g>
<g opacity="0.4">
<path opacity="0.1" d="M60.1691 132.694L27.956 114.101C26.0374 112.987 26.2742 111.045 28.5007 109.742L115.358 59.1488C117.584 57.8698 120.948 57.7277 122.89 58.8409L155.103 77.4345C157.022 78.5477 156.785 80.49 154.558 81.7927L67.7012 132.386C65.4748 133.665 62.1113 133.807 60.1691 132.694Z" fill="#AFB6E5"/>
<path opacity="0.16" d="M60.1225 132.339L28.4542 114.053C26.5593 112.964 26.7962 111.045 28.9753 109.79L115.382 59.433C117.561 58.1776 120.877 58.0355 122.772 59.1251L154.441 77.4107C156.336 78.5003 156.099 80.4189 153.92 81.6742L67.5126 132.031C65.3335 133.286 62.0174 133.428 60.1225 132.339Z" fill="#AFB6E5"/>
<path opacity="0.21" d="M60.0719 131.983L28.9483 114.006C27.0771 112.94 27.314 111.045 29.4694 109.813L115.426 59.7172C117.582 58.4855 120.827 58.3434 122.698 59.4092L153.821 77.387C155.693 78.4528 155.456 80.3477 153.3 81.5794L67.3435 131.676C65.1881 132.907 61.9431 133.049 60.0719 131.983Z" fill="#AFB6E5"/>
<path opacity="0.27" d="M60.0292 131.652L29.4504 113.982C27.6266 112.916 27.8398 111.068 29.9715 109.86L115.478 60.0249C117.586 58.7932 120.784 58.6748 122.632 59.717L153.21 77.3868C155.034 78.4527 154.821 80.3002 152.689 81.5082L67.1823 131.344C65.0743 132.575 61.8767 132.694 60.0292 131.652Z" fill="#AFB6E5"/>
<path opacity="0.33" d="M59.9805 131.297L29.9465 113.959C28.1464 112.917 28.3833 111.117 30.444 109.909L115.501 60.3335C117.585 59.1255 120.712 59.0071 122.512 60.0493L152.546 77.3875C154.346 78.4297 154.109 80.2298 152.048 81.4378L66.9916 131.013C64.9072 132.221 61.7807 132.339 59.9805 131.297Z" fill="#AFB6E5"/>
<path opacity="0.39" d="M59.9298 130.942L30.4407 113.911C28.6642 112.893 28.9011 111.116 30.9381 109.932L115.569 60.6177C117.606 59.4334 120.685 59.3149 122.461 60.3334L151.95 77.3637C153.727 78.3822 153.49 80.1587 151.453 81.343L66.8225 130.657C64.7855 131.842 61.7063 131.96 59.9298 130.942Z" fill="#AFB6E5"/>
<path opacity="0.44" d="M59.8815 130.586L30.9371 113.864C29.208 112.869 29.4212 111.116 31.4108 109.956L115.591 60.9018C117.605 59.7412 120.613 59.6227 122.365 60.6176L151.31 77.3399C153.039 78.3348 152.826 80.0875 150.836 81.2481L66.6557 130.302C64.6424 131.463 61.6343 131.581 59.8815 130.586Z" fill="#AFB6E5"/>
<path opacity="0.5" d="M59.8387 130.231L31.439 113.84C29.7336 112.869 29.9468 111.14 31.9128 110.003L115.643 61.2094C117.609 60.0725 120.57 59.954 122.275 60.9251L150.675 77.3159C152.38 78.287 152.167 80.0161 150.201 81.1531L66.4708 129.946C64.5049 131.083 61.5441 131.202 59.8387 130.231Z" fill="#AFB6E5"/>
<path opacity="0.56" d="M59.7667 129.875L31.9118 113.792C30.2538 112.821 30.4433 111.14 32.3855 110.026L115.666 61.4936C117.584 60.3803 120.498 60.2619 122.18 61.233L150.034 77.3159C151.692 78.287 151.503 79.9687 149.561 81.082L66.2804 129.615C64.3618 130.728 61.4484 130.846 59.7667 129.875Z" fill="#AFB6E5"/>
<path opacity="0.61" d="M59.7219 129.544L32.4118 113.769C30.7775 112.821 30.9907 111.163 32.8619 110.074L115.692 61.7777C117.587 60.6881 120.429 60.5697 122.064 61.5172L149.374 77.2921C151.008 78.2396 150.795 79.8976 148.924 80.9871L66.0935 129.283C64.1986 130.373 61.3563 130.491 59.7219 129.544Z" fill="#AFB6E5"/>
<path opacity="0.67" d="M59.6713 129.189L32.906 113.722C31.2953 112.798 31.5085 111.188 33.356 110.122L115.736 62.0863C117.584 61.0204 120.379 60.902 121.989 61.8257L148.755 77.2927C150.365 78.2165 150.152 79.8272 148.305 80.893L65.9244 128.928C64.0769 129.994 61.2819 130.113 59.6713 129.189Z" fill="#AFB6E5"/>
<path opacity="0.73" d="M59.6227 128.833L33.4022 113.698C31.8389 112.798 32.0284 111.211 33.8522 110.169L115.782 62.3939C117.606 61.3517 120.33 61.2332 121.917 62.1333L148.138 77.2687C149.701 78.1688 149.511 79.7558 147.688 80.7979L65.7574 128.573C63.9336 129.615 61.2096 129.733 59.6227 128.833Z" fill="#AFB6E5"/>
</g>
<path d="M62.347 70.2822V130.895L30.9629 111.709V51.1201L62.347 70.2822Z" fill="url(#paint0_linear_757_1252)"/>
<path d="M149.464 20.0199L62.3233 70.2819L30.9629 51.1198L118.175 0.810547L149.464 20.0199Z" fill="url(#paint1_linear_757_1252)"/>
<path d="M149.463 20.0205V80.6096L62.3223 130.895V70.2824L149.463 20.0205Z" fill="url(#paint2_linear_757_1252)"/>
<path style="mix-blend-mode:multiply" opacity="0.1" d="M149.463 12.9141V80.6089L62.3223 130.895V63.176L149.463 12.9141Z" fill="url(#paint3_linear_757_1252)"/>
<path d="M43.9688 100.956V111.922L40.9369 110.17V99.1794L38.7578 97.9477L42.4528 94.5605L46.1479 102.187L43.9688 100.956Z" fill="url(#paint4_linear_757_1252)"/>
<path d="M52.2341 105.717V116.684L49.2023 114.931V103.964L47.0469 102.709L50.7182 99.3457L54.4133 106.973L52.2341 105.717Z" fill="url(#paint5_linear_757_1252)"/>
<path d="M118.293 90.6515L0.644531 125.636L7.93985 119.785L125.636 84.7773L118.293 90.6515Z" fill="url(#paint6_linear_757_1252)"/>
<path d="M22.5992 131.368V164.457L7.9375 152.851V119.785L22.5992 131.368Z" fill="url(#paint7_linear_757_1252)"/>
<path style="mix-blend-mode:multiply" opacity="0.2" d="M22.5992 131.368L14.0959 141.482L7.9375 136.673V119.785L22.5992 131.368Z" fill="url(#paint8_linear_757_1252)"/>
<path d="M22.6009 131.368L14.7845 139.539L0.146484 127.933L7.9392 119.785L22.6009 131.368Z" fill="url(#paint9_linear_757_1252)"/>
<path d="M140.248 96.4072L22.5755 131.368L7.9375 119.785L125.634 84.7773L140.248 96.4072Z" fill="#FFE585"/>
<path d="M140.251 96.4072V129.449L22.5781 164.457V131.368L140.251 96.4072Z" fill="url(#paint10_linear_757_1252)"/>
<path style="mix-blend-mode:multiply" opacity="0.2" d="M140.251 96.4072L140.109 112.987L24.8283 147.403L22.5781 131.368L140.251 96.4072Z" fill="url(#paint11_linear_757_1252)"/>
<path d="M8.52734 119.904L125.442 85.1328V100.505L22.6443 131.06L8.52734 119.904Z" fill="url(#paint12_linear_757_1252)"/>
<path d="M125.582 85.085L139.651 96.2885L125.439 100.505V85.1323L125.582 85.085Z" fill="url(#paint13_linear_757_1252)"/>
<path style="mix-blend-mode:multiply" opacity="0.3" d="M8.52734 119.904L125.442 85.1328L138.493 96.4548L22.6443 131.06L8.52734 119.904Z" fill="url(#paint14_linear_757_1252)"/>
<path d="M140.251 96.4072L145.58 108.274L27.9312 143.258L22.5781 131.368L140.251 96.4072Z" fill="url(#paint15_linear_757_1252)"/>
<path d="M125.137 122.036V130.753L122.721 131.487V122.77L120.992 123.292L123.929 118.033L126.866 121.515L125.137 122.036Z" fill="url(#paint16_linear_757_1252)"/>
<path d="M131.698 120.046V128.762L129.282 129.497V120.78L127.576 121.301L130.49 116.043L133.427 119.525L131.698 120.046Z" fill="url(#paint17_linear_757_1252)"/>
<defs>
<linearGradient id="paint0_linear_757_1252" x1="-45.709" y1="35.8426" x2="75.9191" y2="108.488" gradientUnits="userSpaceOnUse">
<stop offset="0.04" stop-color="#E67A45"/>
<stop offset="0.33" stop-color="#EC894C"/>
<stop offset="0.89" stop-color="#FBB161"/>
<stop offset="1" stop-color="#FFBA66"/>
</linearGradient>
<linearGradient id="paint1_linear_757_1252" x1="101.713" y1="-75.1271" x2="87.099" y2="65.521" gradientUnits="userSpaceOnUse">
<stop offset="0.04" stop-color="#FF9E6E"/>
<stop offset="0.3" stop-color="#FFAD72"/>
<stop offset="0.82" stop-color="#FFD580"/>
<stop offset="1" stop-color="#FFE585"/>
</linearGradient>
<linearGradient id="paint2_linear_757_1252" x1="71.6546" y1="102.093" x2="194.088" y2="6.82738" gradientUnits="userSpaceOnUse">
<stop offset="0.04" stop-color="#E67A45"/>
<stop offset="0.33" stop-color="#EC894C"/>
<stop offset="0.89" stop-color="#FBB161"/>
<stop offset="1" stop-color="#FFBA66"/>
</linearGradient>
<linearGradient id="paint3_linear_757_1252" x1="107.184" y1="74.1663" x2="122.627" y2="100.932" gradientUnits="userSpaceOnUse">
<stop stop-color="white"/>
<stop offset="1"/>
</linearGradient>
<linearGradient id="paint4_linear_757_1252" x1="33.9732" y1="98.0898" x2="75.6371" y2="121.373" gradientUnits="userSpaceOnUse">
<stop offset="0.04" stop-color="#E67A45"/>
<stop offset="0.33" stop-color="#EC894C"/>
<stop offset="0.89" stop-color="#FBB161"/>
<stop offset="1" stop-color="#FFBA66"/>
</linearGradient>
<linearGradient id="paint5_linear_757_1252" x1="33.9248" y1="98.1851" x2="75.565" y2="121.492" gradientUnits="userSpaceOnUse">
<stop offset="0.04" stop-color="#E67A45"/>
<stop offset="0.33" stop-color="#EC894C"/>
<stop offset="0.89" stop-color="#FBB161"/>
<stop offset="1" stop-color="#FFBA66"/>
</linearGradient>
<linearGradient id="paint6_linear_757_1252" x1="0.644531" y1="105.218" x2="125.636" y2="105.218" gradientUnits="userSpaceOnUse">
<stop offset="0.04" stop-color="#E67A45"/>
<stop offset="0.33" stop-color="#EC894C"/>
<stop offset="0.89" stop-color="#FBB161"/>
<stop offset="1" stop-color="#FFBA66"/>
</linearGradient>
<linearGradient id="paint7_linear_757_1252" x1="-2.55545" y1="129.615" x2="27.8338" y2="150.932" gradientUnits="userSpaceOnUse">
<stop offset="0.04" stop-color="#E67A45"/>
<stop offset="0.33" stop-color="#EC894C"/>
<stop offset="0.89" stop-color="#FBB161"/>
<stop offset="1" stop-color="#FFBA66"/>
</linearGradient>
<linearGradient id="paint8_linear_757_1252" x1="5.07148" y1="138.876" x2="15.6355" y2="125.091" gradientUnits="userSpaceOnUse">
<stop stop-color="white"/>
<stop offset="1"/>
</linearGradient>
<linearGradient id="paint9_linear_757_1252" x1="0.146484" y1="129.662" x2="22.6009" y2="129.662" gradientUnits="userSpaceOnUse">
<stop offset="0.04" stop-color="#FF9E6E"/>
<stop offset="0.3" stop-color="#FFAD72"/>
<stop offset="0.82" stop-color="#FFD580"/>
<stop offset="1" stop-color="#FFE585"/>
</linearGradient>
<linearGradient id="paint10_linear_757_1252" x1="34.4212" y1="111.495" x2="142.193" y2="154.912" gradientUnits="userSpaceOnUse">
<stop offset="0.04" stop-color="#E67A45"/>
<stop offset="0.33" stop-color="#EC894C"/>
<stop offset="0.89" stop-color="#FBB161"/>
<stop offset="1" stop-color="#FFBA66"/>
</linearGradient>
<linearGradient id="paint11_linear_757_1252" x1="85.7016" y1="131.297" x2="80.538" y2="115.972" gradientUnits="userSpaceOnUse">
<stop stop-color="white"/>
<stop offset="1"/>
</linearGradient>
<linearGradient id="paint12_linear_757_1252" x1="65.8951" y1="119.951" x2="74.1852" y2="46.1218" gradientUnits="userSpaceOnUse">
<stop offset="0.04" stop-color="#E67A45"/>
<stop offset="0.33" stop-color="#EC894C"/>
<stop offset="0.89" stop-color="#FBB161"/>
<stop offset="1" stop-color="#FFBA66"/>
</linearGradient>
<linearGradient id="paint13_linear_757_1252" x1="119.755" y1="79.495" x2="146.994" y2="119.761" gradientUnits="userSpaceOnUse">
<stop offset="0.04" stop-color="#FF9E6E"/>
<stop offset="0.3" stop-color="#FFAD72"/>
<stop offset="0.82" stop-color="#FFD580"/>
<stop offset="1" stop-color="#FFE585"/>
</linearGradient>
<linearGradient id="paint14_linear_757_1252" x1="73.7115" y1="108.819" x2="80.7699" y2="131.7" gradientUnits="userSpaceOnUse">
<stop stop-color="white"/>
<stop offset="1" stop-color="#603913"/>
</linearGradient>
<linearGradient id="paint15_linear_757_1252" x1="78.43" y1="97.331" x2="89.0887" y2="139.753" gradientUnits="userSpaceOnUse">
<stop offset="0.04" stop-color="#FF9E6E"/>
<stop offset="0.3" stop-color="#FFAD72"/>
<stop offset="0.82" stop-color="#FFD580"/>
<stop offset="1" stop-color="#FFE585"/>
</linearGradient>
<linearGradient id="paint16_linear_757_1252" x1="126.606" y1="123.197" x2="155.811" y2="106.427" gradientUnits="userSpaceOnUse">
<stop offset="0.04" stop-color="#E67A45"/>
<stop offset="0.33" stop-color="#EC894C"/>
<stop offset="0.89" stop-color="#FBB161"/>
<stop offset="1" stop-color="#FFBA66"/>
</linearGradient>
<linearGradient id="paint17_linear_757_1252" x1="127.363" y1="124.546" x2="156.592" y2="107.753" gradientUnits="userSpaceOnUse">
<stop offset="0.04" stop-color="#E67A45"/>
<stop offset="0.33" stop-color="#EC894C"/>
<stop offset="0.89" stop-color="#FBB161"/>
<stop offset="1" stop-color="#FFBA66"/>
</linearGradient>
</defs>
</svg>
