<svg width="10.25rem" height="16.3125rem" viewBox="0 0 164 261" fill="none" xmlns="http://www.w3.org/2000/svg">
<path opacity="0.02" d="M99.1462 159.462L7.48102 212.163C4.63869 213.798 2.9096 215.953 2.48325 218.274C1.79635 221.922 4.21236 226.02 9.68385 229.17L48.3395 253.069C48.3395 253.069 52.1767 255.414 52.2951 255.462C56.9139 257.688 62.338 259.37 67.7858 259.583C73.2573 259.796 78.5393 258.801 82.3765 256.599L174.042 203.897C176.884 202.263 178.589 200.107 179.039 197.786C179.726 194.138 177.31 190.041 171.839 186.89L133.183 162.991C133.183 162.991 129.346 160.646 129.251 160.599C124.632 158.372 119.208 156.691 113.761 156.477C108.289 156.264 103.007 157.259 99.1699 159.462H99.1462Z" fill="black"/>
<path opacity="0.04" d="M100.374 160.339L8.94582 212.899C6.26929 214.438 4.56388 216.499 4.16122 218.749C3.56907 222.16 5.86661 226.092 11.1486 229.147L48.8332 252.525C48.999 252.62 52.5045 254.728 52.694 254.823C57.2181 256.955 62.5237 258.565 67.8294 258.755C73.1825 258.944 78.3224 257.973 82.0648 255.818L173.493 203.258C176.146 201.719 177.875 199.658 178.278 197.408C178.87 193.997 176.572 190.065 171.29 187.01L133.606 163.632C133.44 163.537 129.934 161.429 129.745 161.334C125.221 159.202 119.915 157.592 114.609 157.402C109.256 157.213 104.117 158.184 100.374 160.339Z" fill="black"/>
<path opacity="0.05" d="M101.61 161.216L10.3947 213.633C7.90762 215.078 6.17855 217.044 5.82326 219.223C5.30216 222.397 7.48129 226.163 12.5975 229.124L49.2873 251.957C49.5478 252.099 52.7691 254.041 53.077 254.184C57.4826 256.244 62.6699 257.76 67.8572 257.926C73.1155 258.092 78.1132 257.144 81.7372 255.06L172.952 202.643C175.439 201.198 177.168 199.232 177.524 197.053C178.045 193.879 175.866 190.113 170.75 187.152L134.06 164.318C133.799 164.176 130.578 162.234 130.27 162.092C125.864 160.031 120.677 158.515 115.49 158.35C110.232 158.184 105.234 159.131 101.61 161.239V161.216Z" fill="black"/>
<path opacity="0.07" d="M102.819 162.091L11.8403 214.367C9.51908 215.693 7.79001 217.588 7.48209 219.696C7.03205 222.657 9.09274 226.21 14.0668 229.076L49.7618 251.364C50.1171 251.577 53.0778 253.307 53.4568 253.496C57.7677 255.462 62.8128 256.907 67.8816 257.049C73.0215 257.191 77.9009 256.244 81.4064 254.23L172.385 201.955C174.706 200.629 176.435 198.734 176.743 196.626C177.193 193.665 175.132 190.112 170.158 187.246L134.463 164.957C134.108 164.744 131.147 163.015 130.768 162.826C126.457 160.86 121.412 159.415 116.343 159.273C111.204 159.131 106.324 160.078 102.842 162.091H102.819Z" fill="black"/>
<path opacity="0.09" d="M104.048 162.968L13.2828 215.101C11.151 216.333 9.39828 218.133 9.11405 220.17C8.73507 222.894 10.701 226.281 15.4856 229.052L50.2095 250.82C50.6595 251.08 53.336 252.643 53.8334 252.857C58.0259 254.752 62.9763 256.102 67.903 256.22C72.9244 256.339 77.6617 255.415 81.0488 253.449L171.814 201.316C173.946 200.084 175.698 198.284 175.983 196.247C176.362 193.523 174.396 190.136 169.611 187.365L134.887 165.597C134.437 165.336 131.761 163.773 131.263 163.56C127.071 161.665 122.12 160.315 117.194 160.197C112.172 160.078 107.435 161.002 104.048 162.968Z" fill="black"/>
<path opacity="0.11" d="M105.282 163.845L14.754 215.836C12.788 216.973 11.0353 218.702 10.7984 220.644C10.4905 223.131 12.338 226.352 16.9568 229.029L50.6858 250.252C51.2069 250.56 53.6228 251.933 54.215 252.194C58.3127 254.018 63.121 255.273 67.9293 255.368C72.856 255.463 77.4511 254.539 80.7197 252.644L171.248 200.653C173.214 199.516 174.967 197.787 175.204 195.845C175.512 193.358 173.664 190.136 169.045 187.46L135.316 166.237C134.795 165.929 132.379 164.555 131.787 164.295C127.689 162.471 122.881 161.216 118.049 161.121C113.122 161.026 108.527 161.95 105.259 163.845H105.282Z" fill="black"/>
<path opacity="0.13" d="M106.514 164.721L16.1992 216.593C14.3991 217.635 12.6463 219.27 12.4568 221.141C12.2199 223.391 13.949 226.447 18.402 229.005L51.1599 249.706C51.7757 250.062 53.9075 251.27 54.6181 251.578C58.5973 253.307 63.3108 254.467 68.0007 254.562C72.809 254.657 77.262 253.733 80.4359 251.909L170.751 200.037C172.551 198.995 174.304 197.36 174.493 195.489C174.73 193.239 173.001 190.183 168.548 187.625L135.79 166.947C135.174 166.592 133.043 165.384 132.332 165.076C128.353 163.347 123.639 162.186 118.95 162.092C114.141 161.997 109.688 162.921 106.514 164.744V164.721Z" fill="black"/>
<path opacity="0.15" d="M107.744 165.598L17.6656 217.328C16.055 218.276 14.2785 219.815 14.1364 221.615C13.9706 223.652 15.6049 226.495 19.8921 228.982L51.6552 249.139C52.3658 249.541 54.237 250.56 55.0186 250.915C58.9031 252.573 63.4745 253.639 68.046 253.71C72.7595 253.781 77.0703 252.881 80.1259 251.104L170.204 199.374C171.815 198.427 173.591 196.887 173.733 195.087C173.899 193.05 172.265 190.208 167.978 187.72L136.215 167.564C135.504 167.161 133.633 166.142 132.851 165.787C128.967 164.129 124.395 163.063 119.824 162.992C115.11 162.921 110.799 163.821 107.744 165.598Z" fill="black"/>
<path opacity="0.16" d="M108.949 166.474L19.0843 218.062C17.6395 218.891 15.863 220.36 15.7446 222.089C15.6262 223.889 17.1657 226.566 21.2871 228.958L52.0554 248.57C52.8607 249.02 54.4477 249.873 55.3477 250.252C59.1375 251.839 63.5668 252.81 68.0198 252.857C72.6149 252.905 76.8074 252.004 79.7444 250.299L169.609 198.711C171.054 197.882 172.831 196.413 172.926 194.684C173.044 192.884 171.504 190.207 167.383 187.815L136.615 168.203C135.809 167.753 134.222 166.9 133.322 166.521C129.533 164.934 125.103 163.963 120.65 163.916C116.055 163.868 111.863 164.769 108.926 166.474H108.949Z" fill="black"/>
<path opacity="0.18" d="M110.184 167.35L20.5555 218.797C19.2764 219.531 17.4999 220.905 17.4289 222.563C17.3815 224.126 18.8027 226.637 22.7582 228.91L52.5554 248.002C53.4318 248.523 54.7582 249.186 55.7767 249.588C59.448 251.104 63.7826 251.981 68.0934 252.004C72.5701 252.004 76.6204 251.152 79.4628 249.517L169.091 198.071C170.37 197.337 172.146 195.963 172.218 194.305C172.265 192.742 170.844 190.231 166.888 187.957L137.091 168.866C136.215 168.345 134.888 167.682 133.87 167.279C130.198 165.763 125.864 164.887 121.553 164.863C117.076 164.863 113.026 165.716 110.184 167.35Z" fill="black"/>
<path opacity="0.2" d="M68.1179 251.152C72.4998 251.152 76.408 250.275 79.1319 248.712L168.547 197.408C169.637 196.769 171.46 195.489 171.46 193.903C171.46 192.576 170.11 190.231 166.344 188.052L137.542 169.506C133.444 167.137 127.949 165.787 122.454 165.787C118.072 165.787 114.164 166.663 111.44 168.227L22.0247 219.531C20.9351 220.17 19.1113 221.449 19.1113 223.036C19.1113 224.363 20.4614 226.708 24.2275 228.887L53.0298 247.433C57.1275 249.802 62.6227 251.152 68.1179 251.152Z" fill="black"/>
<path d="M69.8008 83.7619V256.457L173.475 196.389V24.1914L69.8008 83.7619Z" fill="url(#paint0_linear_757_977)"/>
<path d="M69.8458 83.7621V256.457L29.2715 232.89V59.8154L69.8458 83.7621Z" fill="#BABFDD"/>
<path d="M29.2715 59.8152L69.8458 83.7618L173.472 24.1913L132.827 0.386719L29.2715 59.8152Z" fill="#E4E7F5"/>
<path d="M126.053 55.9539V228.673L176.93 199.231V27.0332L126.053 55.9539Z" fill="#D2D6EB"/>
<path d="M126.124 55.9545V228.674L122.689 226.755V53.6807L126.124 55.9545Z" fill="#BABFDD"/>
<path d="M122.689 53.6802L126.124 55.9541L176.931 27.0334L173.401 24.8779L122.689 53.6802Z" fill="#E4E7F5"/>
<path d="M73.6582 85.7518V258.447L124.536 229.005V56.8311L73.6582 85.7518Z" fill="#D2D6EB"/>
<path d="M73.7057 85.7516V258.447L70.2949 256.528V83.4541L73.7057 85.7516Z" fill="#BABFDD"/>
<path d="M70.2949 83.4544L73.7057 85.7519L124.536 56.8312L121.007 54.6758L70.2949 83.4544Z" fill="#E4E7F5"/>
<path d="M119.255 132.034V166.355L116.91 165.005V130.684L119.255 132.034Z" fill="#116BCC"/>
<path d="M119.256 132.034V166.355L121.577 165.005V130.684L119.256 132.034Z" fill="#51A1F9"/>
<path d="M121.576 130.684L119.255 132.034L116.91 130.684L119.255 129.334L121.576 130.684Z" fill="#51A1F9"/>
<path d="M131.62 125.615V159.936L129.275 158.586V124.265L131.62 125.615Z" fill="#116BCC"/>
<path d="M131.598 125.615V159.936L133.943 158.586V124.265L131.598 125.615Z" fill="#51A1F9"/>
<path d="M133.942 124.265L131.597 125.615L129.275 124.265L131.597 122.915L133.942 124.265Z" fill="#51A1F9"/>
<defs>
<linearGradient id="paint0_linear_757_977" x1="318.268" y1="184.404" x2="-83.8273" y2="94.2549" gradientUnits="userSpaceOnUse">
<stop stop-color="#AFB6E5"/>
<stop offset="0.21" stop-color="#B5BCE8"/>
<stop offset="0.5" stop-color="#C7CDF0"/>
<stop offset="0.58" stop-color="#CED3F4"/>
<stop offset="0.88" stop-color="#DDE2FB"/>
<stop offset="1" stop-color="#E5E9FF"/>
</linearGradient>
</defs>
</svg>
