<svg width="18.5rem" height="14.125rem" viewBox="0 0 296 226" fill="none" xmlns="http://www.w3.org/2000/svg">
<g opacity="0.5">
<path opacity="0.1" d="M124.077 206.191L291.917 109.055C297.057 106.094 296.417 100.907 290.472 97.4722L220.172 56.969C214.226 53.5345 205.273 53.1792 200.133 56.14L32.2935 153.277C27.1536 156.237 27.7931 161.425 33.7383 164.859L104.039 205.362C109.984 208.797 118.937 209.152 124.077 206.191Z" fill="#AFB6E5"/>
<path opacity="0.16" d="M124.219 205.245L290.614 108.937C295.659 106.024 295.044 100.931 289.193 97.5676L220.077 57.7276C214.25 54.3642 205.415 53.9852 200.37 56.9223L33.9754 153.23C28.9302 156.143 29.5461 161.236 35.3966 164.599L104.513 204.439C110.339 207.803 119.174 208.182 124.219 205.245Z" fill="#AFB6E5"/>
<path opacity="0.21" d="M124.34 204.297L289.29 108.842C294.264 105.976 293.625 100.978 287.893 97.662L219.961 58.5089C214.229 55.1929 205.56 54.8376 200.586 57.7036L35.6355 153.159C30.6615 156.025 31.301 161.022 37.033 164.338L104.965 203.492C110.697 206.808 119.366 207.163 124.34 204.297Z" fill="#AFB6E5"/>
<path opacity="0.27" d="M124.478 203.373L287.96 108.747C292.839 105.928 292.223 101.001 286.586 97.7563L219.838 59.2901C214.201 56.0451 205.674 55.6898 200.818 58.5085L37.337 153.134C32.4577 155.953 33.0735 160.88 38.7108 164.125L105.458 202.591C111.095 205.836 119.622 206.191 124.478 203.373Z" fill="#AFB6E5"/>
<path opacity="0.33" d="M124.622 202.425L286.659 108.652C291.443 105.88 290.851 101.048 285.309 97.8508L219.769 60.0714C214.227 56.8738 205.866 56.5422 201.081 59.2898L39.0443 153.063C34.2598 155.834 34.8519 160.666 40.3944 163.864L105.934 201.643C111.476 204.841 119.838 205.172 124.622 202.425Z" fill="#AFB6E5"/>
<path opacity="0.39" d="M124.739 201.501L285.331 108.557C290.044 105.833 289.452 101.096 284.004 97.9694L219.649 60.8769C214.225 57.7504 206.006 57.395 201.293 60.1189L40.7007 153.063C35.9872 155.787 36.5794 160.524 42.0272 163.651L106.382 200.743C111.806 203.87 120.026 204.225 124.739 201.501Z" fill="#AFB6E5"/>
<path opacity="0.44" d="M124.883 200.555L284.006 108.44C288.625 105.763 288.033 101.121 282.703 98.0413L219.533 61.6358C214.203 58.5566 206.126 58.225 201.531 60.8778L42.4079 152.993C37.7891 155.67 38.3813 160.312 43.7107 163.391L106.881 199.797C112.211 202.876 120.288 203.208 124.883 200.555Z" fill="#AFB6E5"/>
<path opacity="0.5" d="M125 199.63L282.678 108.368C287.202 105.762 286.634 101.191 281.399 98.159L219.413 62.4404C214.178 59.4323 206.267 59.1007 201.743 61.7061L44.0644 152.969C39.5404 155.574 40.1089 160.146 45.3435 163.177L107.33 198.896C112.565 201.904 120.476 202.236 125 199.63Z" fill="#AFB6E5"/>
<path opacity="0.56" d="M125.144 198.683L281.377 108.249C285.83 105.691 285.262 101.214 280.122 98.2299L219.343 63.1982C214.204 60.2374 206.458 59.9058 202.005 62.4876L45.7716 152.921C41.3187 155.479 41.8871 159.956 47.027 162.94L107.806 197.972C112.945 200.933 120.691 201.264 125.144 198.683Z" fill="#AFB6E5"/>
<path opacity="0.61" d="M125.26 197.759L280.025 108.178C284.384 105.668 283.839 101.262 278.794 98.3722L219.2 64.0274C214.178 61.114 206.551 60.806 202.217 63.3168L47.4516 152.898C43.0934 155.408 43.6381 159.814 48.6833 162.704L108.278 197.049C113.299 199.962 120.926 200.27 125.26 197.759Z" fill="#AFB6E5"/>
<path opacity="0.67" d="M125.401 196.811L278.721 108.06C282.985 105.596 282.463 101.285 277.537 98.4431L219.127 64.7851C214.2 61.9428 206.739 61.6349 202.475 64.0982L49.1553 152.85C44.8918 155.313 45.4129 159.624 50.3396 162.467L108.75 196.125C113.676 198.967 121.137 199.275 125.401 196.811Z" fill="#AFB6E5"/>
<path opacity="0.73" d="M125.549 195.888L277.424 107.966C281.616 105.55 281.072 101.333 276.263 98.5385L219.038 65.5674C214.206 62.7724 206.91 62.4882 202.718 64.8805L50.8428 152.803C46.6503 155.219 47.1951 159.435 52.0034 162.23L109.229 195.201C114.061 197.996 121.356 198.304 125.549 195.888Z" fill="#AFB6E5"/>
</g>
<path d="M124.288 190.251H112.635V197.262V197.286C112.635 199.181 115.24 200.697 118.462 200.697C121.683 200.697 124.288 199.181 124.288 197.309C124.288 197.309 124.288 197.286 124.288 197.262V190.251Z" fill="url(#paint0_linear_851_675)"/>
<path d="M46.4355 151.832H58.0891V158.843C58.0891 160.762 55.4836 162.278 52.2623 162.278C49.041 162.278 46.4355 160.762 46.4355 158.891V158.843V151.832Z" fill="url(#paint1_linear_851_675)"/>
<path d="M274.154 96.3828H285.808V103.394V103.441C285.808 105.312 276.76 106.828 279.981 106.828C276.76 106.828 274.154 105.312 274.154 103.441V103.394V96.3828Z" fill="url(#paint2_linear_851_675)"/>
<path d="M118.202 177.247V196.504L43.1406 153.442V134.186L118.202 177.247Z" fill="url(#paint3_linear_851_675)"/>
<path d="M118.178 177.247V196.503L288.789 97.4956V78.2861L118.178 177.247Z" fill="url(#paint4_linear_851_675)"/>
<path d="M288.789 78.2862L118.178 177.247L43.1406 134.185L213.799 35.2012L288.789 78.2862Z" fill="url(#paint5_linear_851_675)"/>
<path d="M288.791 76.9366L118.18 175.921L43.1426 132.859L213.801 33.8516L288.791 76.9366Z" fill="#116BCC"/>
<path d="M203.645 9.43144L215.725 2.27823C218.141 0.525458 221.196 -0.303541 224.062 1.3308L288.488 38.2811V77.0789L213.403 34.0176V17.4136L203.621 9.40777L203.645 9.43144Z" fill="#51A1F9"/>
<path d="M274.63 46.6422V85.44L199.545 42.3787V15.8503C199.545 10.3788 205.443 6.96795 210.18 9.69185L274.606 46.6422H274.63Z" fill="#116BCC"/>
<path d="M116.502 95.3409L256.108 13.079C258.524 11.3262 261.579 10.4972 264.445 12.1316L271.528 16.3003V83.0241L253.787 72.7443L126.284 103.347L116.502 95.3409Z" fill="#51A1F9"/>
<path d="M130.167 99.7705V166.494L112.426 156.215V101.784C112.426 96.3124 118.324 92.9015 123.061 95.6254L130.143 99.7942L130.167 99.7705Z" fill="#116BCC"/>
<path d="M132.392 101.262V168.46L129.668 166.849V99.6279L132.392 101.262Z" fill="#51A1F9"/>
<path d="M274.485 18.2186L132.368 101.262L129.668 99.6277L271.832 16.5605L274.485 18.2186Z" fill="#51A1F9"/>
<path style="mix-blend-mode:color-dodge" d="M272.804 19.4736L132.369 101.262L132.227 127.932L131.114 101.641L123.061 95.6008L131.801 99.6274L272.804 19.4736Z" fill="url(#paint6_radial_851_675)"/>
<path d="M47.217 100.859L59.2969 93.706C61.7129 91.9532 64.7684 91.1242 67.6344 92.7585L132.061 129.709V168.507L56.9757 125.445V108.841L47.1934 100.835L47.217 100.859Z" fill="#51A1F9"/>
<path d="M53.7757 101.12C49.0385 98.3965 43.1406 101.831 43.1406 107.279V150.293L118.226 193.354V138.071L53.7994 101.12H53.7757Z" fill="#116BCC"/>
<path d="M288.718 38.3282L274.577 46.6421L274.482 18.2188L132.366 101.262L132.318 129.757L118.178 138.07V193.354L288.789 94.3696L288.718 38.3282Z" fill="#116BCC"/>
<path style="mix-blend-mode:color-dodge" d="M132.323 129.756L119.177 138.568L118.301 190.393L117.496 138.473L57.9961 103.465L118.301 136.673L132.323 129.756Z" fill="url(#paint7_radial_851_675)"/>
<g opacity="0.4">
<path opacity="0.1" d="M33.7863 225.093L1.57316 206.499C-0.345415 205.386 -0.108564 203.444 2.11793 202.141L33.431 184.448C35.6575 183.169 39.0209 183.026 40.9632 184.14L73.1763 202.733C75.0948 203.847 74.858 205.789 72.6315 207.092L41.3184 224.785C39.0919 226.064 35.7285 226.206 33.7863 225.093Z" fill="#AFB6E5"/>
<path opacity="0.16" d="M33.7397 224.738L2.07142 206.453C0.176534 205.363 0.413398 203.445 2.59252 202.189L33.4555 184.756C35.6346 183.501 38.9507 183.359 40.8456 184.448L72.5139 202.734C74.4088 203.824 74.172 205.742 71.9928 206.997L41.1299 224.43C38.9507 225.686 35.6346 225.828 33.7397 224.738Z" fill="#AFB6E5"/>
<path opacity="0.21" d="M33.6891 224.382L2.56553 206.404C0.694329 205.338 0.931193 203.444 3.08663 202.212L33.4996 185.039C35.655 183.808 38.9 183.666 40.7712 184.731L71.8948 202.709C73.766 203.775 73.5291 205.67 71.3737 206.902L40.9607 224.074C38.8053 225.306 35.5603 225.448 33.6891 224.382Z" fill="#AFB6E5"/>
<path opacity="0.27" d="M33.619 224.028L3.04025 206.358C1.21642 205.292 1.4296 203.445 3.56134 202.237L33.5242 185.325C35.6323 184.093 38.83 183.975 40.6775 185.017L71.2562 202.687C73.08 203.752 72.8669 205.6 70.7352 206.808L40.7722 223.72C38.6641 224.952 35.4665 225.07 33.619 224.028Z" fill="#AFB6E5"/>
<path opacity="0.33" d="M33.5724 223.672L3.53836 206.334C1.73821 205.292 1.97506 203.492 4.03575 202.284L33.5486 185.632C35.633 184.424 38.7596 184.306 40.5597 185.348L70.5937 202.686C72.3938 203.729 72.157 205.529 70.0963 206.737L40.5834 223.388C38.499 224.596 35.3725 224.714 33.5724 223.672Z" fill="#AFB6E5"/>
<path opacity="0.39" d="M33.5256 223.341L4.03637 206.31C2.25991 205.292 2.49678 203.515 4.53379 202.331L33.5966 185.916C35.6336 184.732 38.7128 184.614 40.4893 185.632L69.9785 202.663C71.755 203.681 71.518 205.457 69.481 206.642L40.4182 223.056C38.3812 224.241 35.302 224.359 33.5256 223.341Z" fill="#AFB6E5"/>
<path opacity="0.44" d="M33.4772 222.985L4.53282 206.263C2.80374 205.268 3.0169 203.515 5.00654 202.355L33.6194 186.201C35.6327 185.04 38.6408 184.922 40.3935 185.916L69.338 202.639C71.067 203.634 70.8539 205.386 68.8643 206.547L40.2514 222.701C38.2381 223.862 35.23 223.98 33.4772 222.985Z" fill="#AFB6E5"/>
<path opacity="0.5" d="M33.4344 222.63L5.03473 206.239C3.32933 205.268 3.54253 203.539 5.50848 202.402L33.6949 186.508C35.6609 185.371 38.6216 185.253 40.327 186.224L68.7267 202.615C70.4321 203.586 70.2189 205.315 68.2529 206.452L40.0665 222.345C38.1005 223.482 35.1398 223.601 33.4344 222.63Z" fill="#AFB6E5"/>
<path opacity="0.56" d="M33.3838 222.274L5.52899 206.191C3.87096 205.22 4.06045 203.538 6.00271 202.425L33.7391 186.792C35.6577 185.679 38.5711 185.561 40.2528 186.532L68.1077 202.615C69.7657 203.586 69.5762 205.268 67.6339 206.381L39.8975 222.014C37.9789 223.127 35.0655 223.245 33.3838 222.274Z" fill="#AFB6E5"/>
<path opacity="0.61" d="M33.3391 221.919L6.02905 206.144C4.39471 205.196 4.60785 203.538 6.47906 202.449L33.7655 187.077C35.6603 185.987 38.5027 185.869 40.137 186.816L67.4471 202.591C69.0814 203.538 68.8683 205.196 66.9971 206.286L39.7107 221.658C37.8158 222.748 34.9735 222.866 33.3391 221.919Z" fill="#AFB6E5"/>
<path opacity="0.67" d="M33.2884 221.564L6.52315 206.097C4.9125 205.173 5.12568 203.563 6.97319 202.497L33.8095 187.385C35.657 186.319 38.452 186.201 40.0627 187.125L66.8279 202.592C68.4386 203.515 68.2254 205.126 66.3779 206.192L39.5416 221.304C37.6941 222.369 34.8991 222.488 33.2884 221.564Z" fill="#AFB6E5"/>
<path opacity="0.73" d="M33.2399 221.233L7.01936 206.098C5.45608 205.197 5.64554 203.61 7.46937 202.568L33.8557 187.717C35.6795 186.675 38.4034 186.556 39.9904 187.457L66.2109 202.592C67.7742 203.492 67.5847 205.079 65.7609 206.121L39.3745 220.972C37.5507 222.015 34.8268 222.133 33.2399 221.233Z" fill="#AFB6E5"/>
</g>
<path d="M34.7812 105.336V189.492L37.4578 187.976V103.796L34.7812 105.336Z" fill="url(#paint8_linear_851_675)"/>
<path d="M34.8052 105.335V189.492L32.1523 187.976V103.819L34.8052 105.335Z" fill="url(#paint9_linear_851_675)"/>
<path d="M32.1523 103.82L34.8052 105.336L37.458 103.796L34.8052 102.28L32.1523 103.82Z" fill="url(#paint10_linear_851_675)"/>
<path d="M7.01758 167.82V206.76L9.67041 205.22V166.304L7.01758 167.82Z" fill="url(#paint11_linear_851_675)"/>
<path d="M7.01783 167.82V206.76L4.38867 205.22V166.304L7.01783 167.82Z" fill="url(#paint12_linear_851_675)"/>
<path d="M4.38867 166.304L7.01783 167.82L9.67066 166.304L7.01783 164.765L4.38867 166.304Z" fill="url(#paint13_linear_851_675)"/>
<path d="M35.918 184.588V223.505L38.5708 221.965V183.049L35.918 184.588Z" fill="url(#paint14_linear_851_675)"/>
<path d="M35.9183 184.588V223.505L33.2891 221.965V183.049L35.9183 184.588Z" fill="url(#paint15_linear_851_675)"/>
<path d="M33.2891 183.049L35.9183 184.589L38.5711 183.049L35.9183 181.51L33.2891 183.049Z" fill="url(#paint16_linear_851_675)"/>
<path d="M35.8945 184.78V187.764L69.1498 168.531V165.452L35.8945 184.78Z" fill="url(#paint17_linear_851_675)"/>
<path d="M35.9198 184.78V187.764L4.29883 169.597V166.518L35.9198 184.78Z" fill="url(#paint18_linear_851_675)"/>
<path d="M35.8945 183.383V186.367L69.1498 167.134V164.055L35.8945 183.383Z" fill="#116BCC"/>
<path d="M35.9198 183.382V186.367L4.29883 168.199V165.12L35.9198 183.382Z" fill="#116BCC"/>
<path d="M4.29883 165.121L35.9198 183.383L69.1514 164.055L37.5067 145.816L4.29883 165.121Z" fill="#51A1F9"/>
<path d="M66.5898 125.114V151.121L69.0058 149.794V123.692L66.5898 125.114Z" fill="url(#paint19_linear_851_675)"/>
<path d="M66.5897 125.114V151.121L34.9688 132.93V106.828L66.5897 125.114Z" fill="#51A1F9"/>
<path d="M34.9688 106.828L66.5897 125.114L69.0057 123.692L37.361 105.454L34.9688 106.828Z" fill="#116BCC"/>
<path d="M67.207 124.356V208.536L69.8599 206.997V122.84L67.207 124.356Z" fill="url(#paint20_linear_851_675)"/>
<path d="M67.2072 124.356V208.536L64.5781 206.997V122.84L67.2072 124.356Z" fill="url(#paint21_linear_851_675)"/>
<path d="M64.5781 122.84L67.2072 124.356L69.8601 122.84L67.2072 121.301L64.5781 122.84Z" fill="url(#paint22_linear_851_675)"/>
<defs>
<linearGradient id="paint0_linear_851_675" x1="124.217" y1="195.486" x2="112.753" y2="195.486" gradientUnits="userSpaceOnUse">
<stop stop-color="#273B98"/>
<stop offset="0.23" stop-color="#2E2BA2"/>
<stop offset="0.4" stop-color="#361CAC"/>
<stop offset="0.77" stop-color="#440B88"/>
<stop offset="1" stop-color="#4E0070"/>
</linearGradient>
<linearGradient id="paint1_linear_851_675" x1="58.0654" y1="157.067" x2="46.5777" y2="157.067" gradientUnits="userSpaceOnUse">
<stop stop-color="#273B98"/>
<stop offset="0.23" stop-color="#2E2BA2"/>
<stop offset="0.4" stop-color="#361CAC"/>
<stop offset="0.77" stop-color="#440B88"/>
<stop offset="1" stop-color="#4E0070"/>
</linearGradient>
<linearGradient id="paint2_linear_851_675" x1="274.225" y1="101.617" x2="285.689" y2="101.617" gradientUnits="userSpaceOnUse">
<stop stop-color="#273B98"/>
<stop offset="0.23" stop-color="#2E2BA2"/>
<stop offset="0.4" stop-color="#361CAC"/>
<stop offset="0.77" stop-color="#440B88"/>
<stop offset="1" stop-color="#4E0070"/>
</linearGradient>
<linearGradient id="paint3_linear_851_675" x1="93.2367" y1="169.099" x2="-71.8554" y2="119.666" gradientUnits="userSpaceOnUse">
<stop stop-color="#273B98"/>
<stop offset="0.23" stop-color="#2E2BA2"/>
<stop offset="0.4" stop-color="#361CAC"/>
<stop offset="0.77" stop-color="#440B88"/>
<stop offset="1" stop-color="#4E0070"/>
</linearGradient>
<linearGradient id="paint4_linear_851_675" x1="436.448" y1="189.611" x2="-39.8085" y2="82.8575" gradientUnits="userSpaceOnUse">
<stop stop-color="#273B98"/>
<stop offset="0.23" stop-color="#2E2BA2"/>
<stop offset="0.4" stop-color="#361CAC"/>
<stop offset="0.77" stop-color="#440B88"/>
<stop offset="1" stop-color="#4E0070"/>
</linearGradient>
<linearGradient id="paint5_linear_851_675" x1="83.786" y1="-50.4004" x2="172.183" y2="118.103" gradientUnits="userSpaceOnUse">
<stop stop-color="#5F39BF"/>
<stop offset="1" stop-color="#B273FF"/>
</linearGradient>
<radialGradient id="paint6_radial_851_675" cx="0" cy="0" r="1" gradientUnits="userSpaceOnUse" gradientTransform="translate(190.708 88.7792) rotate(180) scale(66.7711 66.7711)">
<stop stop-color="white"/>
<stop offset="1"/>
</radialGradient>
<radialGradient id="paint7_radial_851_675" cx="0" cy="0" r="1" gradientUnits="userSpaceOnUse" gradientTransform="translate(95.1833 146.929) rotate(180) scale(40.4322 40.4322)">
<stop stop-color="white"/>
<stop offset="1"/>
</radialGradient>
<linearGradient id="paint8_linear_851_675" x1="28.7413" y1="148.871" x2="78.6244" y2="133.925" gradientUnits="userSpaceOnUse">
<stop stop-color="#AFB6E5"/>
<stop offset="0.21" stop-color="#B5BCE8"/>
<stop offset="0.5" stop-color="#C7CDF0"/>
<stop offset="0.58" stop-color="#CED3F4"/>
<stop offset="0.88" stop-color="#DDE2FB"/>
<stop offset="1" stop-color="#E5E9FF"/>
</linearGradient>
<linearGradient id="paint9_linear_851_675" x1="1.19474" y1="153.892" x2="67.184" y2="139.088" gradientUnits="userSpaceOnUse">
<stop stop-color="#AFB6E5"/>
<stop offset="0.21" stop-color="#B5BCE8"/>
<stop offset="0.5" stop-color="#C7CDF0"/>
<stop offset="0.58" stop-color="#CED3F4"/>
<stop offset="0.88" stop-color="#DDE2FB"/>
<stop offset="1" stop-color="#E5E9FF"/>
</linearGradient>
<linearGradient id="paint10_linear_851_675" x1="37.3869" y1="98.8931" x2="34.4498" y2="104.507" gradientUnits="userSpaceOnUse">
<stop stop-color="#AFB6E5"/>
<stop offset="0.21" stop-color="#B5BCE8"/>
<stop offset="0.5" stop-color="#C7CDF0"/>
<stop offset="0.58" stop-color="#CED3F4"/>
<stop offset="0.88" stop-color="#DDE2FB"/>
<stop offset="1" stop-color="#E5E9FF"/>
</linearGradient>
<linearGradient id="paint11_linear_851_675" x1="4.50686" y1="187.669" x2="30.5141" y2="179.9" gradientUnits="userSpaceOnUse">
<stop stop-color="#AFB6E5"/>
<stop offset="0.21" stop-color="#B5BCE8"/>
<stop offset="0.5" stop-color="#C7CDF0"/>
<stop offset="0.58" stop-color="#CED3F4"/>
<stop offset="0.88" stop-color="#DDE2FB"/>
<stop offset="1" stop-color="#E5E9FF"/>
</linearGradient>
<linearGradient id="paint12_linear_851_675" x1="-11.102" y1="190.298" x2="23.2665" y2="182.6" gradientUnits="userSpaceOnUse">
<stop stop-color="#AFB6E5"/>
<stop offset="0.21" stop-color="#B5BCE8"/>
<stop offset="0.5" stop-color="#C7CDF0"/>
<stop offset="0.58" stop-color="#CED3F4"/>
<stop offset="0.88" stop-color="#DDE2FB"/>
<stop offset="1" stop-color="#E5E9FF"/>
</linearGradient>
<linearGradient id="paint13_linear_851_675" x1="9.62329" y1="161.378" x2="6.66255" y2="166.991" gradientUnits="userSpaceOnUse">
<stop stop-color="#AFB6E5"/>
<stop offset="0.21" stop-color="#B5BCE8"/>
<stop offset="0.5" stop-color="#C7CDF0"/>
<stop offset="0.58" stop-color="#CED3F4"/>
<stop offset="0.88" stop-color="#DDE2FB"/>
<stop offset="1" stop-color="#E5E9FF"/>
</linearGradient>
<linearGradient id="paint14_linear_851_675" x1="33.4073" y1="204.437" x2="59.4145" y2="196.645" gradientUnits="userSpaceOnUse">
<stop stop-color="#AFB6E5"/>
<stop offset="0.21" stop-color="#B5BCE8"/>
<stop offset="0.5" stop-color="#C7CDF0"/>
<stop offset="0.58" stop-color="#CED3F4"/>
<stop offset="0.88" stop-color="#DDE2FB"/>
<stop offset="1" stop-color="#E5E9FF"/>
</linearGradient>
<linearGradient id="paint15_linear_851_675" x1="17.7981" y1="207.043" x2="52.1671" y2="199.345" gradientUnits="userSpaceOnUse">
<stop stop-color="#AFB6E5"/>
<stop offset="0.21" stop-color="#B5BCE8"/>
<stop offset="0.5" stop-color="#C7CDF0"/>
<stop offset="0.58" stop-color="#CED3F4"/>
<stop offset="0.88" stop-color="#DDE2FB"/>
<stop offset="1" stop-color="#E5E9FF"/>
</linearGradient>
<linearGradient id="paint16_linear_851_675" x1="38.5237" y1="178.123" x2="35.563" y2="183.736" gradientUnits="userSpaceOnUse">
<stop stop-color="#AFB6E5"/>
<stop offset="0.21" stop-color="#B5BCE8"/>
<stop offset="0.5" stop-color="#C7CDF0"/>
<stop offset="0.58" stop-color="#CED3F4"/>
<stop offset="0.88" stop-color="#DDE2FB"/>
<stop offset="1" stop-color="#E5E9FF"/>
</linearGradient>
<linearGradient id="paint17_linear_851_675" x1="42.124" y1="179.735" x2="112.448" y2="158.678" gradientUnits="userSpaceOnUse">
<stop stop-color="#AFB6E5"/>
<stop offset="0.21" stop-color="#B5BCE8"/>
<stop offset="0.5" stop-color="#C7CDF0"/>
<stop offset="0.58" stop-color="#CED3F4"/>
<stop offset="0.88" stop-color="#DDE2FB"/>
<stop offset="1" stop-color="#E5E9FF"/>
</linearGradient>
<linearGradient id="paint18_linear_851_675" x1="-22.9639" y1="186.793" x2="65.0537" y2="167.062" gradientUnits="userSpaceOnUse">
<stop stop-color="#AFB6E5"/>
<stop offset="0.21" stop-color="#B5BCE8"/>
<stop offset="0.5" stop-color="#C7CDF0"/>
<stop offset="0.58" stop-color="#CED3F4"/>
<stop offset="0.88" stop-color="#DDE2FB"/>
<stop offset="1" stop-color="#E5E9FF"/>
</linearGradient>
<linearGradient id="paint19_linear_851_675" x1="65.0266" y1="138.236" x2="83.7858" y2="132.622" gradientUnits="userSpaceOnUse">
<stop offset="0.02" stop-color="#A352DE"/>
<stop offset="0.27" stop-color="#BB6DF3"/>
<stop offset="0.79" stop-color="#EB6DD9"/>
<stop offset="0.87" stop-color="#F074DB"/>
<stop offset="1" stop-color="#FF89E4"/>
</linearGradient>
<linearGradient id="paint20_linear_851_675" x1="61.1671" y1="167.891" x2="111.026" y2="152.969" gradientUnits="userSpaceOnUse">
<stop stop-color="#AFB6E5"/>
<stop offset="0.21" stop-color="#B5BCE8"/>
<stop offset="0.5" stop-color="#C7CDF0"/>
<stop offset="0.58" stop-color="#CED3F4"/>
<stop offset="0.88" stop-color="#DDE2FB"/>
<stop offset="1" stop-color="#E5E9FF"/>
</linearGradient>
<linearGradient id="paint21_linear_851_675" x1="33.6208" y1="172.936" x2="99.6095" y2="158.132" gradientUnits="userSpaceOnUse">
<stop stop-color="#AFB6E5"/>
<stop offset="0.21" stop-color="#B5BCE8"/>
<stop offset="0.5" stop-color="#C7CDF0"/>
<stop offset="0.58" stop-color="#CED3F4"/>
<stop offset="0.88" stop-color="#DDE2FB"/>
<stop offset="1" stop-color="#E5E9FF"/>
</linearGradient>
<linearGradient id="paint22_linear_851_675" x1="69.8127" y1="117.914" x2="66.8519" y2="123.527" gradientUnits="userSpaceOnUse">
<stop stop-color="#AFB6E5"/>
<stop offset="0.21" stop-color="#B5BCE8"/>
<stop offset="0.5" stop-color="#C7CDF0"/>
<stop offset="0.58" stop-color="#CED3F4"/>
<stop offset="0.88" stop-color="#DDE2FB"/>
<stop offset="1" stop-color="#E5E9FF"/>
</linearGradient>
</defs>
</svg>
