<svg width="11.5rem" height="9.9375rem" viewBox="0 0 184 159" fill="none" xmlns="http://www.w3.org/2000/svg">
<g opacity="0.5">
<path opacity="0.1" d="M88.7543 156.985L3.55536 107.789C-1.53716 104.852 -0.897635 99.6884 4.97652 96.3012L74.8032 56.0823C80.701 52.6715 89.607 52.3162 94.6995 55.2532L179.898 104.449C184.991 107.386 184.351 112.55 178.477 115.937L108.651 156.156C102.753 159.567 93.8468 159.922 88.7543 156.985Z" fill="#AFB6E5"/>
<path opacity="0.16" d="M88.6377 156.062L4.88364 107.695C-0.137811 104.805 0.501705 99.7364 6.28111 96.3966L74.9234 56.8408C80.7265 53.5011 89.4667 53.1221 94.4882 56.0355L178.242 104.403C183.264 107.292 182.624 112.361 176.845 115.701L108.202 155.257C102.399 158.596 93.6592 158.975 88.6377 156.062Z" fill="#AFB6E5"/>
<path opacity="0.21" d="M88.4922 155.138L6.15932 107.6C1.23261 104.758 1.84846 99.7834 7.53312 96.4911L74.9911 57.6222C80.6758 54.3298 89.2976 53.9745 94.2243 56.8168L176.557 104.355C181.484 107.197 180.868 112.171 175.183 115.464L107.725 154.333C102.041 157.625 93.4189 157.98 88.4922 155.138Z" fill="#AFB6E5"/>
<path opacity="0.27" d="M88.3758 154.213L7.48775 107.528C2.65578 104.733 3.24793 99.8538 8.83785 96.6088L75.1116 58.4268C80.7015 55.2055 89.1574 54.8502 94.0131 57.6452L174.901 104.33C179.733 107.125 179.141 112.005 173.551 115.25L107.277 153.432C101.687 156.653 93.2314 157.008 88.3758 154.213Z" fill="#AFB6E5"/>
<path opacity="0.33" d="M88.2299 153.267L8.78673 107.41C4.02582 104.663 4.61799 99.8545 10.1132 96.7042L75.2026 59.2091C80.6978 56.0352 89.0116 55.7036 93.7725 58.4512L173.216 104.307C177.977 107.055 177.384 111.863 171.889 115.014L106.8 152.509C101.305 155.683 92.9908 156.014 88.2299 153.267Z" fill="#AFB6E5"/>
<path opacity="0.39" d="M88.1153 152.343L10.1169 107.315C5.45078 104.615 6.04293 99.9015 11.4197 96.7986L75.3248 59.9667C80.7252 56.8639 88.8732 56.5085 93.5394 59.2088L171.538 104.236C176.204 106.936 175.612 111.65 170.235 114.753L106.33 151.585C100.929 154.687 92.7814 155.043 88.1153 152.343Z" fill="#AFB6E5"/>
<path opacity="0.44" d="M87.9714 151.418L11.4179 107.22C6.82278 104.567 7.41493 99.9486 12.6969 96.8931L75.4177 60.7481C80.6997 57.6926 88.7293 57.361 93.3008 60.0138L169.854 104.212C174.449 106.865 173.857 111.484 168.575 114.539L105.854 150.684C100.572 153.74 92.5428 154.071 87.9714 151.418Z" fill="#AFB6E5"/>
<path opacity="0.5" d="M87.8296 150.495L12.7209 107.126C8.22055 104.521 8.78902 99.9966 13.9763 96.9885L75.5128 61.5304C80.7 58.5222 88.5638 58.2143 93.0642 60.7961L168.173 104.165C172.673 106.771 172.105 111.295 166.917 114.303L105.381 149.761C100.194 152.769 92.3299 153.077 87.8296 150.495Z" fill="#AFB6E5"/>
<path opacity="0.56" d="M87.7131 149.548L14.0493 107.007C9.64371 104.449 10.1885 100.02 15.281 97.0592L75.6332 62.288C80.7257 59.3509 88.4237 59.0193 92.853 61.5774L166.517 104.118C170.922 106.676 170.378 111.105 165.285 114.066L104.933 148.837C99.8404 151.774 92.1424 152.106 87.7131 149.548Z" fill="#AFB6E5"/>
<path opacity="0.61" d="M87.5673 148.624L15.3483 106.912C11.0138 104.425 11.5585 100.043 16.5563 97.1773L75.7479 63.0693C80.7456 60.1796 88.3015 59.8717 92.6124 62.3587L164.831 104.07C169.166 106.557 168.621 110.939 163.623 113.805L104.432 147.913C99.434 150.803 91.8781 151.111 87.5673 148.624Z" fill="#AFB6E5"/>
<path opacity="0.67" d="M87.4508 147.7L16.6767 106.842C12.4369 104.402 12.958 100.115 17.861 97.296L75.8683 63.8749C80.7713 61.0563 88.1614 60.7484 92.4012 63.188L163.175 104.047C167.415 106.486 166.894 110.773 161.991 113.592L103.984 147.013C99.0807 149.832 91.6906 150.14 87.4508 147.7Z" fill="#AFB6E5"/>
<path opacity="0.73" d="M87.3071 146.777L17.9542 106.747C13.8091 104.355 14.3302 100.163 19.1148 97.3913L75.9378 64.6571C80.7224 61.8859 87.994 61.5779 92.1391 63.9939L161.492 104.023C165.637 106.416 165.116 110.608 160.331 113.379L103.508 146.114C98.7238 148.885 91.4522 149.193 87.3071 146.777Z" fill="#AFB6E5"/>
</g>
<path d="M21.2016 95.2354H9.61914V102.199C9.61914 104.118 12.2009 105.61 15.3985 105.61C18.5962 105.61 21.178 104.094 21.178 102.246V102.199V95.2354H21.2016Z" fill="#145BA8"/>
<path d="M100.149 141.187H88.5664V148.15V148.174C88.5664 150.045 91.1482 151.561 94.3458 151.561C97.5434 151.561 100.125 150.045 100.125 148.198C100.125 148.198 100.125 148.174 100.125 148.15V141.187H100.149Z" fill="#145BA8"/>
<path d="M165.854 103.028H154.271V109.992C154.271 109.992 154.271 110.016 154.271 110.039C154.271 111.911 156.853 113.403 160.051 113.403C163.249 113.403 165.83 111.887 165.83 110.039V110.016V103.028H165.854Z" fill="#145BA8"/>
<path d="M94.5781 128.277V147.368L169.142 104.614V85.5234L94.5781 128.277Z" fill="#145BA8"/>
<path d="M94.6281 128.277V147.368L6.68164 96.3241V77.2568L94.6281 128.277Z" fill="#145BA8"/>
<path d="M6.68164 77.2569L94.6281 128.277L169.145 85.5233L81.1271 34.4561L6.68164 77.2569Z" fill="url(#paint0_linear_757_1172)"/>
<path d="M94.5781 126.928V144.266L169.142 101.513V84.1748L94.5781 126.928Z" fill="#116BCC"/>
<path d="M94.6281 126.928V144.266L6.68164 93.2225V75.9316L94.6281 126.928Z" fill="#007AFE"/>
<path d="M6.68164 75.9316L94.6281 126.928L169.145 84.1744L81.1271 33.1309L6.68164 75.9316Z" fill="#51A1F9"/>
<path d="M91.1931 9.04143L79.1843 1.9356C76.792 0.182828 73.7601 -0.646184 70.8941 1.01184L6.91797 37.7016V76.2389L81.4818 33.4855V17L91.1931 9.04143Z" fill="#51A1F9"/>
<path d="M20.7031 45.9915V84.5288L95.267 41.7754V15.4128C95.267 9.98869 89.3928 6.60158 84.703 9.30179L20.7268 45.9915H20.7031Z" fill="#116BCC"/>
<path d="M20.7272 45.9918V84.5291L6.70508 76.2389V37.749L20.7272 45.9918Z" fill="#007AFE"/>
<path d="M96.2876 46.9152L38.9909 12.6651C36.5986 10.9123 33.5668 10.0833 30.7008 11.7413L23.666 15.8864V82.1364L41.2885 71.9277L86.5763 54.8737L96.2876 46.9152Z" fill="#51A1F9"/>
<path d="M82.7383 51.3206V117.571L100.361 107.362V53.3103C100.361 47.8862 94.4866 44.499 89.7967 47.1993L82.762 51.3443L82.7383 51.3206Z" fill="#116BCC"/>
<path d="M80.5117 52.8138V119.538L83.2119 117.927V51.2031L80.5117 52.8138Z" fill="#116BCC"/>
<path d="M80.5337 52.814V119.538L20.75 84.4823V17.7822L80.5337 52.814Z" fill="#007AFE"/>
<path d="M20.75 17.7818L80.5337 52.8135L83.2102 51.2029L23.3792 16.1475L20.75 17.7818Z" fill="#116BCC"/>
<path d="M165.092 52.4106L153.083 45.3047C150.69 43.552 147.659 42.723 144.793 44.381L80.8164 81.0707V119.608L155.38 76.8546V60.3691L165.092 52.4106Z" fill="#51A1F9"/>
<path d="M94.5781 89.3607V127.898L169.142 85.1446V58.782C169.142 53.3578 163.268 49.9707 158.578 52.6709L94.6018 89.3607H94.5781Z" fill="#116BCC"/>
<path d="M94.626 89.3609V127.898L80.5801 119.608V81.1182L94.626 89.3609Z" fill="#007AFE"/>
<path style="mix-blend-mode:color-dodge" d="M80.5801 81.1189L93.6311 89.8591L94.5075 141.329L95.3128 89.7644L154.386 54.9932L94.5075 87.9879L80.5801 81.1189Z" fill="url(#paint1_radial_757_1172)"/>
<path style="mix-blend-mode:color-dodge" d="M22.4121 19.0371L80.5378 52.8135L80.6799 79.2945L81.7695 53.1925L89.7754 47.1762L81.1063 51.1791L22.4121 19.0371Z" fill="url(#paint2_radial_757_1172)"/>
<defs>
<linearGradient id="paint0_linear_757_1172" x1="165.473" y1="-66.4467" x2="82.0271" y2="92.5817" gradientUnits="userSpaceOnUse">
<stop stop-color="#5F39BF"/>
<stop offset="1" stop-color="#B273FF"/>
</linearGradient>
<radialGradient id="paint1_radial_757_1172" cx="0" cy="0" r="1" gradientUnits="userSpaceOnUse" gradientTransform="translate(117.483 98.1492) scale(40.148 40.1479)">
<stop stop-color="white"/>
<stop offset="1"/>
</radialGradient>
<radialGradient id="paint2_radial_757_1172" cx="0" cy="0" r="1" gradientUnits="userSpaceOnUse" gradientTransform="translate(59.3387 57.527) scale(31.9526 31.9525)">
<stop stop-color="white"/>
<stop offset="1"/>
</radialGradient>
</defs>
</svg>
