<svg width="30.875rem" height="25.5rem" viewBox="0 0 494 408" fill="none" xmlns="http://www.w3.org/2000/svg">
<path opacity="0.05" d="M10.1532 207.08C5.9371 209.466 3.40268 212.572 2.76316 215.932C1.74466 221.215 5.32126 227.171 13.4219 231.736L302.748 399.624C309.451 403.402 317.907 405.51 326.149 405.788C332.45 406.02 338.585 405.186 343.63 403.286C345.051 402.776 346.709 401.988 347.941 401.293L482.975 325.355C487.191 322.968 489.726 319.863 490.365 316.503C491.384 311.219 487.807 305.264 479.706 300.699L190.381 132.787C183.678 129.01 175.222 126.901 166.979 126.623C160.678 126.391 154.544 127.225 149.499 129.125C148.077 129.635 146.419 130.423 145.188 131.118L10.1532 207.08Z" fill="#A7AEDD"/>
<path opacity="0.09" d="M12.4029 208.289C8.47103 210.514 5.93662 213.48 5.36815 216.724C4.46808 221.66 7.85519 227.314 15.6479 231.717L302.534 398.239C309.119 401.946 317.456 404.009 325.604 404.287C331.857 404.495 337.897 403.638 342.8 401.715C344.079 401.251 345.927 400.347 347.04 399.722L480.132 324.873C484.064 322.648 486.599 319.682 487.167 316.438C488.067 311.502 484.68 305.848 476.887 301.445L190.001 134.9C183.417 131.192 175.079 129.13 166.931 128.852C160.678 128.643 154.638 129.501 149.735 131.424C148.456 131.888 146.608 132.791 145.495 133.417L12.4029 208.289Z" fill="#9EA5D5"/>
<path opacity="0.14" d="M14.6305 209.491C10.9592 211.554 8.47214 214.404 7.92736 217.486C7.14572 222.074 10.3433 227.427 17.8282 231.668L302.298 396.822C308.741 400.46 316.984 402.5 325.037 402.731C331.243 402.917 337.188 402.013 341.949 400.09C343.086 399.673 345.123 398.653 346.094 398.097L477.267 324.337C480.939 322.275 483.426 319.424 483.971 316.342C484.752 311.754 481.555 306.401 474.07 302.16L189.623 137.006C183.181 133.368 174.938 131.329 166.885 131.097C160.679 130.912 154.734 131.815 149.973 133.739C148.836 134.156 146.799 135.175 145.828 135.732L14.6305 209.491Z" fill="#969DCE"/>
<path opacity="0.18" d="M16.8573 210.695C13.4702 212.618 10.9831 215.306 10.5094 218.273C9.8462 222.513 12.8543 227.588 20.0312 231.62L302.062 395.407C308.386 398.976 316.51 400.992 324.492 401.177C330.651 401.34 336.501 400.413 341.144 398.466C342.139 398.095 344.341 396.96 345.218 396.473L474.473 323.803C477.86 321.879 480.347 319.191 480.821 316.225C481.484 311.984 478.476 306.909 471.299 302.854L189.221 139.113C182.897 135.545 174.773 133.529 166.79 133.343C160.632 133.181 154.781 134.108 150.163 136.055C149.168 136.425 146.965 137.561 146.089 138.047L16.8573 210.695Z" fill="#8D94C6"/>
<path opacity="0.23" d="M19.0852 211.904C15.9587 213.665 13.519 216.214 13.0927 219.041C12.5242 222.911 15.3428 227.708 22.2118 231.578L301.826 393.998C308.032 397.497 316.038 399.467 323.925 399.652C330.036 399.791 335.792 398.841 340.292 396.871C341.145 396.57 343.537 395.295 344.272 394.878L471.585 323.32C474.711 321.559 477.151 319.01 477.577 316.183C478.146 312.313 475.327 307.516 468.458 303.646L188.844 141.226C182.638 137.727 174.632 135.757 166.744 135.572C160.633 135.433 154.878 136.383 150.377 138.353C149.525 138.654 147.132 139.928 146.398 140.346L19.0852 211.904Z" fill="#858CBE"/>
<path opacity="0.27" d="M21.3074 213.107C18.4651 214.706 16.0254 217.116 15.6701 219.827C15.2201 223.349 17.8492 227.845 24.4103 231.553L301.609 392.605C307.696 396.035 315.584 397.981 323.376 398.12C329.44 398.236 335.125 397.263 339.459 395.27C340.17 395.015 342.751 393.648 343.367 393.301L468.762 322.831C471.604 321.232 474.044 318.822 474.399 316.111C474.849 312.589 472.22 308.093 465.659 304.386L188.46 143.333C182.373 139.903 174.485 137.957 166.693 137.818C160.629 137.702 154.944 138.698 150.61 140.668C149.899 140.923 147.317 142.29 146.702 142.638L21.3074 213.107Z" fill="#7C83B6"/>
<path opacity="0.32" d="M23.5361 214.311C20.978 215.771 18.5383 218.019 18.2541 220.591C17.8988 223.765 20.3621 227.96 26.6152 231.505L301.374 391.191C307.343 394.551 315.112 396.451 322.81 396.567C328.826 396.66 334.416 395.64 338.609 393.647C339.177 393.439 341.948 391.955 342.422 391.677L465.898 322.297C468.456 320.837 470.895 318.59 471.18 316.017C471.535 312.843 469.072 308.648 462.819 305.103L188.083 145.441C182.115 142.08 174.345 140.18 166.647 140.064C160.631 139.972 155.041 140.991 150.849 142.984C150.28 143.193 147.509 144.676 147.035 144.954L23.5361 214.311Z" fill="#747BAE"/>
<path opacity="0.36" d="M25.7865 215.519C23.4889 216.817 21.073 218.926 20.8598 221.382C20.5992 224.186 22.8731 228.102 28.842 231.462L301.185 389.78C307.035 393.071 314.71 394.948 322.289 395.041C328.258 395.11 333.753 394.067 337.803 392.051C338.23 391.889 341.167 390.29 341.546 390.082L463.079 321.814C465.377 320.516 467.793 318.407 468.006 315.951C468.267 313.147 465.993 309.231 460.024 305.871L187.705 147.553C181.854 144.262 174.18 142.385 166.6 142.292C160.631 142.223 155.136 143.266 151.086 145.282C150.66 145.444 147.723 147.043 147.344 147.251L25.7865 215.519Z" fill="#6B72A6"/>
<path opacity="0.41" d="M28.0123 216.72C25.999 217.856 23.583 219.826 23.4172 222.143C23.2514 224.599 25.3595 228.214 31.0204 231.412L300.947 388.34C306.656 391.561 314.235 393.415 321.72 393.461C327.642 393.508 333.042 392.442 336.974 390.426C337.258 390.333 340.385 388.595 340.622 388.456L460.236 321.277C462.25 320.142 464.666 318.172 464.831 315.855C464.997 313.398 462.889 309.783 457.228 306.585L187.301 149.634C181.593 146.413 174.013 144.56 166.505 144.513C160.583 144.467 155.183 145.533 151.275 147.549C150.991 147.642 147.864 149.38 147.603 149.519L28.0123 216.72Z" fill="#636A9F"/>
<path opacity="0.45" d="M30.2397 217.93C28.487 218.903 26.0947 220.734 25.9999 222.935C25.9289 225.021 27.8711 228.358 33.2242 231.393L300.711 386.954C306.301 390.106 313.762 391.913 321.176 391.936C327.05 391.936 332.356 390.87 336.146 388.831C336.288 388.785 339.604 386.931 339.722 386.861L457.419 320.772C459.171 319.799 461.564 317.968 461.658 315.766C461.73 313.681 459.787 310.344 454.434 307.308L186.923 151.748C181.333 148.596 173.872 146.789 166.459 146.742C160.584 146.742 155.279 147.831 151.489 149.847C151.347 149.894 148.031 151.748 147.912 151.817L30.2397 217.93Z" fill="#5A6197"/>
<path opacity="0.5" d="M320.628 390.382C326.455 390.382 331.689 389.246 335.313 387.207L454.573 320.26C456.041 319.426 458.457 317.758 458.457 315.695C458.457 313.957 456.657 310.922 451.612 308.071L186.541 153.855C181.069 150.773 173.727 148.988 166.408 148.988C160.581 148.988 155.346 150.124 151.722 152.163L32.4626 219.133C30.9941 219.967 28.5781 221.636 28.5781 223.698C28.5781 225.436 30.3783 228.472 35.4234 231.322L300.495 385.516C305.966 388.598 313.309 390.382 320.628 390.382Z" fill="#52598F"/>
<path d="M67.5234 67.7437L136.497 100.765L258.362 32.428L200.474 2.04815C197.56 0.495557 194.031 0.472384 191.094 2.04815L67.5234 67.7437Z" fill="#E1E4F5"/>
<path d="M33.9375 149.869V197.119L136.498 258.458V100.742L77.2594 67.6046C72.5458 64.8933 66.4348 66.724 64.1136 71.5672L40.8775 119.628C36.3061 129.083 33.9375 139.395 33.9375 149.846V149.869Z" fill="#D3D7EE"/>
<path d="M136.473 100.746V258.462L258.361 189.614V32.4316L136.473 100.746Z" fill="url(#paint0_linear_757_1010)"/>
<path d="M107.288 156.499L114.228 160.462C115.768 161.342 116.739 162.964 116.739 164.725V165.05C116.739 166.811 114.797 167.9 113.257 167.019L106.98 163.428C105.488 162.57 104.564 161.018 104.564 159.326V158.052C104.564 156.684 106.08 155.827 107.288 156.522V156.499Z" fill="url(#paint1_linear_757_1010)"/>
<path d="M106.957 163.427L113.234 167.019C114.726 167.876 116.574 166.88 116.692 165.234C116.692 165.234 116.716 165.35 116.716 165.42V166.578C116.716 168.34 114.773 169.429 113.234 168.548L106.957 164.956C105.465 164.099 104.541 162.546 104.541 160.855V159.325C104.541 161.017 105.465 162.569 106.957 163.427Z" fill="#A4ABDE"/>
<path d="M75.3603 80.6976C72.0916 78.7743 67.8518 80.0488 66.2649 83.432L52.4322 112.792C51.1294 115.689 52.2664 119.072 55.0613 120.625L117.143 155.662C120.056 157.285 123.656 155.222 123.656 151.955V113.928C123.656 110.823 121.951 107.949 119.18 106.42L75.3603 80.6976Z" fill="#007AFE"/>
<path d="M119.298 154.042C118.943 154.042 118.587 153.949 118.256 153.764L56.1746 118.75C54.3507 117.73 53.6165 115.552 54.4692 113.698L68.2782 84.3607C68.9651 82.924 70.4336 81.9971 72.0679 81.9971C72.8259 81.9971 73.5602 82.2056 74.1997 82.5764L118.019 108.298C120.127 109.457 121.43 111.612 121.43 113.93V151.956C121.43 152.698 121.074 153.161 120.79 153.44C120.388 153.81 119.843 154.019 119.298 154.019V154.042Z" fill="#78B6FA"/>
<path d="M71.1001 137.983C71.4791 137.983 71.8344 137.797 72.0475 137.45C72.3554 136.94 72.1896 136.268 71.6686 135.967L64.2074 131.564C60.2519 129.223 57.8122 124.983 57.8122 120.487V91.9841C57.8122 87.6508 60.015 83.6187 63.71 81.2087L71.0527 76.4119C71.5501 76.0874 71.6922 75.4154 71.3606 74.9056C71.029 74.419 70.3421 74.2799 69.821 74.6044L62.4783 79.4012C58.1675 82.2051 55.6094 86.9092 55.6094 91.961V120.464C55.6094 125.724 58.4754 130.683 63.0705 133.394L70.5316 137.797C70.6974 137.913 70.9106 137.959 71.1001 137.959V137.983Z" fill="#A4ABDE"/>
<path d="M51.9842 122.084L57.3136 119.072C59.6585 117.751 61.5771 114.182 61.5771 111.124V95.4123C61.5771 92.3534 59.6585 90.9399 57.3136 92.2607L51.9842 95.2732C49.6393 96.5941 47.7207 100.163 47.7207 103.222V118.933C47.7207 121.992 49.6393 123.405 51.9842 122.084Z" fill="url(#paint2_linear_757_1010)"/>
<path style="mix-blend-mode:color-dodge" d="M51.9864 95.2733L57.3158 92.2608C58.6659 91.4961 59.8502 91.6814 60.6318 92.5157C60.0634 92.4693 59.4475 92.6084 58.7843 92.9791L53.4549 95.9916C51.11 97.3125 49.1914 100.881 49.1914 103.94V119.651C49.1914 120.949 49.5467 121.922 50.1152 122.548C48.694 122.432 47.6992 121.111 47.6992 118.933V103.222C47.6992 100.163 49.6178 96.5941 51.9627 95.2733H51.9864Z" fill="url(#paint3_radial_757_1010)"/>
<path d="M57.2872 203.216V219.715L28.9823 202.243C27.8453 201.525 27.1348 200.296 27.1348 198.976V183.658L57.2872 203.216Z" fill="url(#paint4_linear_757_1010)"/>
<path d="M33.7927 183.469V178.672C33.7927 178.672 33.1532 179.112 31.661 179.831C24.5552 183.283 26.6395 185.044 31.5189 187.918C34.5507 189.702 57.2894 203.212 57.2894 203.212L61.8134 200.362L33.7927 183.469Z" fill="url(#paint5_linear_757_1010)"/>
<path d="M47.0098 185.44V217.951L65.0349 208.057L63.8269 175.614L47.0098 185.44Z" fill="#A4ABDE"/>
<path d="M127.353 233.456C127.353 242.888 124.037 249.562 118.613 252.806C118.447 252.899 102.293 262.075 102.127 262.168C96.49 265.25 100.09 258.251 91.5396 253.431C74.3435 243.722 60.3924 220.178 60.3924 200.875C60.3924 191.328 51.368 191.258 56.8868 188.06C57.0526 187.968 74.2961 178.629 74.4382 178.559C80.0518 175.593 87.7261 176.126 96.1821 180.9C113.378 190.609 127.329 214.153 127.329 233.456H127.353Z" fill="#12171D"/>
<path d="M101.074 262.564C113.158 255.653 113.031 233.445 100.791 212.96C88.5512 192.476 68.8328 181.473 56.7489 188.384C44.665 195.295 44.7916 217.503 57.0316 237.988C69.2716 258.472 88.99 269.475 101.074 262.564Z" fill="#23272C"/>
<path d="M101.106 237.998C101.106 251.763 91.1583 257.301 78.9126 250.373C66.6432 243.444 56.7188 226.69 56.7188 212.925C56.7188 199.16 66.6669 193.622 78.9126 200.551C91.182 207.479 101.106 224.233 101.106 237.998Z" fill="url(#paint6_linear_757_1010)"/>
<path d="M101.107 237.997C101.107 242.4 100.089 245.969 98.2888 248.541C94.499 251.229 88.9328 251.137 82.7507 247.637C71.3103 241.172 62.0254 225.53 62.0254 212.693C62.0254 203.423 66.8574 198.14 73.8684 198.372C75.4791 198.858 77.1608 199.577 78.8899 200.55C91.1593 207.479 101.084 224.233 101.084 237.997H101.107Z" fill="url(#paint7_linear_757_1010)"/>
<path d="M66.2406 197.862C62.285 200.133 59.8453 204.93 59.8453 211.743C59.8453 225.508 69.7935 242.262 82.0392 249.191C86.7527 251.856 91.1347 252.667 94.7113 251.879C90.6846 254.173 85.0947 253.872 78.9126 250.372C66.6432 243.444 56.7188 226.69 56.7188 212.925C56.7188 204.467 60.4848 199.114 66.2406 197.862Z" fill="#AFB6E5"/>
<path d="M87.3699 228.865C87.3699 232.457 84.7644 233.917 81.5668 232.109C78.3691 230.302 75.7637 225.899 75.7637 222.307C75.7637 218.715 78.3691 217.255 81.5668 219.063C84.7644 220.87 87.3699 225.273 87.3699 228.865Z" fill="url(#paint8_radial_757_1010)"/>
<path style="mix-blend-mode:screen" d="M80.4288 189.776C72.1861 185.118 64.7012 184.492 59.1113 187.227C64.2986 185.813 70.7412 186.856 77.7286 190.819C94.9247 200.528 108.876 224.072 108.876 243.375C108.876 253.432 105.086 260.338 99.0461 263.304C106.649 261.218 111.576 253.826 111.576 242.355C111.576 223.052 97.6249 199.509 80.4288 189.799V189.776Z" fill="url(#paint9_radial_757_1010)"/>
<path d="M79.1983 206.808C79.1983 208.616 80.5011 210.794 82.088 211.698C83.6987 212.601 84.9778 211.883 84.9778 210.076C84.9778 208.268 83.675 206.09 82.088 205.186C80.5011 204.282 79.1983 205.001 79.1983 206.808ZM79.1983 240.038C79.1983 241.846 80.5011 244.024 82.088 244.928C83.6987 245.832 84.9778 245.113 84.9778 243.306C84.9778 241.498 83.675 239.32 82.088 238.416C80.4774 237.512 79.1983 238.231 79.1983 240.038ZM73.6795 206.252C72.5426 204.352 70.7187 203.309 69.5818 203.935C68.4449 204.56 68.4449 206.623 69.5818 208.546C70.7187 210.446 72.5426 211.489 73.6795 210.863C74.8164 210.238 74.8164 208.175 73.6795 206.252ZM90.5203 243.862C91.6572 245.762 93.4811 246.805 94.618 246.179C95.7549 245.553 95.7549 243.491 94.618 241.568C93.4811 239.668 91.6572 238.625 90.5203 239.25C89.3834 239.876 89.3834 241.938 90.5203 243.862ZM64.3945 215.058C64.3945 216.865 65.6973 219.043 67.2842 219.947C68.8949 220.851 70.1739 220.133 70.1739 218.325C70.1739 216.518 68.8712 214.339 67.2842 213.436C65.6736 212.532 64.3945 213.25 64.3945 215.058ZM94.0022 231.789C94.0022 233.596 95.3049 235.774 96.8919 236.678C98.5025 237.582 99.7816 236.864 99.7816 235.056C99.7816 233.249 98.4788 231.07 96.8919 230.167C95.2812 229.263 94.0022 229.981 94.0022 231.789ZM69.5818 232.044C70.7187 233.944 72.5426 234.987 73.6795 234.361C74.8164 233.735 74.8164 231.673 73.6795 229.749C72.5426 227.849 70.7187 226.806 69.5818 227.432C68.4449 228.058 68.4449 230.12 69.5818 232.044ZM90.5203 220.364C91.6572 222.265 93.4811 223.307 94.618 222.682C95.7549 222.056 95.7549 219.994 94.618 218.07C93.4811 216.147 91.6572 215.127 90.5203 215.753C89.3834 216.379 89.3834 218.441 90.5203 220.364Z" fill="#23272C"/>
<path d="M91.0648 228.868C91.0648 231.463 90.141 233.317 88.6488 234.198L85.0248 236.307C83.4852 237.164 84.4564 235.241 82.1114 233.897C77.3742 231.208 73.5371 224.743 73.5371 219.413C73.5371 216.772 71.05 216.772 72.5659 215.891L76.4268 213.759C78.0137 212.925 80.1218 213.064 82.4667 214.385C87.204 217.073 91.0411 223.538 91.0411 228.868H91.0648Z" fill="url(#paint10_linear_757_1010)"/>
<path d="M87.2269 231.045C87.2269 236.375 83.3897 238.507 78.6525 235.842C73.9153 233.177 70.0781 226.689 70.0781 221.359C70.0781 216.029 73.9153 213.897 78.6525 216.562C83.3897 219.227 87.2269 225.716 87.2269 231.045Z" fill="url(#paint11_linear_757_1010)"/>
<path d="M117.949 254.174V225.486L95.6131 187.83L64.1816 170.056L83.1542 159.466L114.728 177.309L137.04 214.965V243.653L117.949 254.174Z" fill="url(#paint12_linear_757_1010)"/>
<path d="M117.949 225.485L95.6133 187.829L114.728 177.309L137.04 214.965L117.949 225.485Z" fill="url(#paint13_linear_757_1010)"/>
<path d="M112.666 251.389V226.872L91.7753 191.603L64.0389 175.938L47.0086 185.439V217.951L41.7266 215.008V182.45L64.0626 169.982L95.6124 187.826L117.948 225.482V254.355L112.666 251.389Z" fill="url(#paint14_linear_757_1010)"/>
<g style="mix-blend-mode:color-dodge">
<path d="M117.407 224.806L95.0706 187.15L63.9707 169.585L65.155 168.913L96.7286 186.733L119.041 224.413V253.495L117.407 252.568V224.806Z" fill="url(#paint15_radial_757_1010)"/>
<path d="M46.4648 215.978V184.764L63.4951 175.263L63.9452 175.518L48.1229 184.347V216.905L46.4648 215.978Z" fill="url(#paint16_radial_757_1010)"/>
</g>
<path style="mix-blend-mode:color-dodge" opacity="0.5" d="M69.2062 157.702C60.8687 165.72 66.5771 184.629 81.9494 199.9C97.3216 215.194 116.531 221.08 124.869 213.062C133.206 205.045 127.498 186.135 112.125 170.864C96.7532 155.57 77.5438 149.684 69.2062 157.702Z" fill="url(#paint17_radial_757_1010)"/>
<path style="mix-blend-mode:multiply" d="M33.9375 162.246V177.448L38.6037 180.066V165.073L33.9375 162.246Z" fill="url(#paint18_linear_757_1010)"/>
<path d="M33.9375 177.445L38.6037 180.063V167.99L33.9375 177.445Z" fill="url(#paint19_linear_757_1010)"/>
<path style="mix-blend-mode:multiply" d="M33.9375 175.985V177.445L38.6037 180.064V178.789L33.9375 175.985Z" fill="url(#paint20_linear_757_1010)"/>
<path d="M34.1279 173.527C34.2463 174.941 35.3122 175.427 36.5202 174.616C37.7282 173.805 38.6046 171.998 38.4861 170.584C38.3677 169.17 37.3018 168.684 36.0939 169.495C34.8859 170.306 34.0095 172.113 34.1279 173.527Z" fill="url(#paint21_linear_757_1010)"/>
<path style="mix-blend-mode:color-dodge" d="M27.7534 185.396C32.1353 187.203 37.9858 183.287 40.8281 176.683C43.6705 170.079 42.4388 163.242 38.0569 161.435C33.6749 159.628 27.8245 163.544 24.9821 170.148C22.1398 176.752 23.3715 183.588 27.7534 185.396Z" fill="url(#paint22_radial_757_1010)"/>
<path d="M256.279 288.959V317.879L156.537 261.29V232.463L256.279 288.959Z" fill="#3F454C"/>
<path d="M256.256 288.957V317.877L284.277 302.282V273.292L256.256 288.957Z" fill="#12161E"/>
<path d="M284.276 273.29L256.256 288.955L156.537 232.459L184.581 216.817L284.276 273.29Z" fill="url(#paint23_linear_757_1010)"/>
<path d="M239.844 313.1L234.751 316.02L151.992 269.349L157.132 266.499L239.844 313.1Z" fill="url(#paint24_linear_757_1010)"/>
<path d="M151.871 239.717V269.402L157.129 266.528V236.658L151.871 239.717Z" fill="url(#paint25_linear_757_1010)"/>
<path d="M144.363 231.538V273.412L242.282 328.958V286.736L144.363 231.538ZM151.99 244.445L234.655 291.046V316.004L151.99 269.102V244.445Z" fill="url(#paint26_linear_757_1010)"/>
<path d="M242.234 286.708V328.952L248.653 325.754V283.278L242.234 286.708Z" fill="url(#paint27_linear_757_1010)"/>
<path d="M248.653 283.28L242.234 286.71L144.363 231.535L150.853 228.175L248.653 283.28Z" fill="url(#paint28_linear_757_1010)"/>
<path d="M266.391 284.46V339.334L276.078 334.027V278.806L266.391 284.46Z" fill="#12161E"/>
<path d="M349.407 356.991C349.407 366.376 346.091 373.003 340.714 376.224C340.548 376.317 323.731 385.841 323.565 385.934C317.975 388.993 321.552 382.041 313.048 377.244C295.947 367.581 282.091 344.176 282.091 324.989C282.091 315.488 273.114 315.418 278.609 312.244C278.751 312.151 296.658 302.465 296.823 302.372C302.413 299.406 310.04 299.962 318.449 304.712C335.55 314.376 349.407 337.78 349.407 356.968V356.991Z" fill="#13171E"/>
<path d="M322.52 386.348C334.536 379.476 334.414 357.398 322.246 337.035C310.079 316.672 290.474 305.736 278.458 312.608C266.442 319.481 266.565 341.559 278.732 361.922C290.899 382.285 310.504 393.221 322.52 386.348Z" fill="#12171D"/>
<path style="mix-blend-mode:screen" d="M301.988 313.981C293.793 309.346 286.332 308.721 280.789 311.432C285.953 310.018 292.372 311.084 299.312 315.001C316.413 324.664 330.269 348.069 330.269 367.256C330.269 377.243 326.503 384.126 320.487 387.069C328.043 385.006 332.946 377.637 332.946 366.236C332.946 347.026 319.089 323.644 301.988 313.981Z" fill="url(#paint29_radial_757_1010)"/>
<path d="M300.259 328.51C289.221 322.276 280.244 327.282 280.244 339.679C280.244 352.077 289.221 367.232 300.259 373.465C311.297 379.699 320.274 374.694 320.274 362.296C320.274 349.898 311.297 334.766 300.259 328.533V328.51Z" fill="url(#paint30_linear_757_1010)"/>
<path d="M307.365 368.971C296.327 362.737 287.35 347.582 287.35 335.185C287.35 331.361 288.203 328.256 289.719 325.938C284.034 326.703 280.244 331.593 280.244 339.657C280.244 352.054 289.221 367.21 300.259 373.443C307.886 377.753 314.542 376.687 317.905 371.52C314.85 371.937 311.249 371.149 307.365 368.971Z" fill="#A4ABDE"/>
<path style="mix-blend-mode:multiply" d="M314.14 360.56C314.14 368.207 308.621 371.289 301.799 367.443C294.978 363.596 289.459 354.257 289.459 346.61C289.459 338.963 294.978 335.881 301.799 339.728C308.621 343.574 314.14 352.913 314.14 360.56Z" fill="url(#paint31_linear_757_1010)"/>
<path d="M313.145 356.155C313.145 362.644 308.455 365.239 302.699 361.995C296.92 358.727 292.254 350.825 292.254 344.36C292.254 337.895 296.944 335.276 302.699 338.52C308.479 341.788 313.145 349.69 313.145 356.155Z" fill="url(#paint32_linear_757_1010)"/>
<path d="M310.303 358.102C310.303 364.591 305.613 367.186 299.858 363.942C294.078 360.675 289.412 352.773 289.412 346.307C289.412 339.842 294.102 337.223 299.858 340.468C305.637 343.735 310.303 351.637 310.303 358.102Z" fill="url(#paint33_linear_757_1010)"/>
<path d="M347.279 329.856V384.706L337.284 379.075V335.417L266.462 295.652V339.31L256.467 333.656V278.806L347.279 329.856Z" fill="#3F454D"/>
<path d="M347.35 329.946V384.82L357.037 379.513V324.292L347.35 329.946Z" fill="#12161E"/>
<path d="M361.062 337.919V374.741L357.391 371.868V335.139L361.062 337.919Z" fill="url(#paint34_linear_757_1010)"/>
<path d="M361.064 337.918V374.74L481.2 307.283V270.392L361.064 337.918Z" fill="url(#paint35_linear_757_1010)"/>
<path d="M481.198 270.392L361.062 337.919L357.391 335.138L477.527 267.635L481.198 270.392Z" fill="url(#paint36_linear_757_1010)"/>
<path d="M356.895 327.586V367.05L352.939 363.968V324.597L356.895 327.586Z" fill="url(#paint37_linear_757_1010)"/>
<path d="M356.873 327.582V367.046L485.631 294.746V255.189L356.873 327.582Z" fill="#116BCC"/>
<path d="M485.629 255.191L356.871 327.583L352.939 324.594L481.721 252.225L485.629 255.191Z" fill="url(#paint38_linear_757_1010)"/>
<path d="M358.866 195.366V348.609L143.678 225.931V73.1514L358.866 195.366Z" fill="url(#paint39_linear_757_1010)"/>
<g style="mix-blend-mode:multiply">
<path d="M347.83 201.57L154.717 91.8691V219.715L347.83 329.856V201.57Z" fill="#E7E8EF"/>
</g>
<g style="mix-blend-mode:multiply">
<path d="M347.83 201.57V212.879L158.578 105.356V221.916L154.717 219.715V91.8691L347.83 201.57Z" fill="#C5C7D3"/>
</g>
<path d="M358.82 195.362V348.605L486.394 277.603V124.035L358.82 195.362Z" fill="#B7BDE3"/>
<path d="M475.354 271.327V142.624L369.832 201.646V330.071L475.354 271.327Z" fill="#3F454C"/>
<path d="M486.392 124.036L358.819 195.363L143.678 73.148L271.346 1.91406L486.392 124.036Z" fill="#D1D6F0"/>
<g style="mix-blend-mode:multiply">
<path d="M369.832 211.448L475.093 271.466L475.354 271.327V142.624L369.832 201.646V211.448Z" fill="#12171D"/>
</g>
<g style="mix-blend-mode:multiply">
<path d="M449.058 311.755L449.2 308.186C449.2 304.409 445.008 302.022 441.668 303.922L408.65 322.484C403.51 325.381 400.359 330.71 400.359 336.504V339.284L449.082 311.732L449.058 311.755Z" fill="#AFB6E5"/>
</g>
<path d="M409.502 325.291V333.934L441.407 316.323V307.447L409.502 325.291Z" fill="url(#paint40_linear_757_1010)"/>
<path style="mix-blend-mode:color-dodge" d="M441.407 307.447V308.722L410.568 325.986V333.355L409.502 333.934V325.291L441.407 307.447Z" fill="url(#paint41_radial_757_1010)"/>
<path d="M464.242 292.663V301.145L484.304 289.882V281.378L464.242 292.663Z" fill="url(#paint42_linear_757_1010)"/>
<path d="M474.217 287.102V295.606L484.307 289.882V281.378L474.217 287.102Z" fill="#51A1F9"/>
<path d="M470.921 292.524L468.315 297.923C468.315 297.923 464.359 294.725 465.165 293.057C465.946 291.388 470.921 292.524 470.921 292.524Z" fill="url(#paint43_linear_757_1010)"/>
<path d="M467.463 296.352C467.463 297.719 468.458 298.276 469.666 297.58C470.874 296.885 471.869 295.24 471.869 293.873C471.869 292.506 470.874 291.949 469.666 292.645C468.458 293.34 467.463 294.985 467.463 296.352Z" fill="url(#paint44_linear_757_1010)"/>
<path d="M482.055 286.057L479.45 291.456C479.45 291.456 475.494 288.258 476.3 286.59C477.081 284.922 482.055 286.057 482.055 286.057Z" fill="url(#paint45_linear_757_1010)"/>
<path d="M478.598 289.885C478.598 291.252 479.592 291.808 480.8 291.113C482.008 290.417 483.003 288.772 483.003 287.405C483.003 286.038 482.008 285.482 480.8 286.177C479.592 286.872 478.598 288.517 478.598 289.885Z" fill="url(#paint46_linear_757_1010)"/>
<path d="M357.537 352.266V360.747L377.599 349.485V340.98L357.537 352.266Z" fill="#51A1F9"/>
<path d="M367.512 346.704V355.209L377.602 349.485V340.98L367.512 346.704Z" fill="url(#paint47_linear_757_1010)"/>
<path d="M364.219 352.126L361.614 357.526C361.614 357.526 357.658 354.328 358.464 352.659C359.245 350.991 364.219 352.126 364.219 352.126Z" fill="url(#paint48_linear_757_1010)"/>
<path d="M360.762 355.955C360.762 357.322 361.757 357.878 362.965 357.183C364.173 356.488 365.167 354.843 365.167 353.475C365.167 352.108 364.173 351.552 362.965 352.247C361.757 352.942 360.762 354.588 360.762 355.955Z" fill="url(#paint49_linear_757_1010)"/>
<path d="M375.374 345.667L372.768 351.067C372.768 351.067 368.813 347.869 369.618 346.2C370.4 344.532 375.374 345.667 375.374 345.667Z" fill="url(#paint50_linear_757_1010)"/>
<path d="M371.893 349.495C371.893 350.862 372.887 351.418 374.095 350.723C375.303 350.028 376.298 348.383 376.298 347.015C376.298 345.648 375.303 345.092 374.095 345.787C372.887 346.482 371.893 348.128 371.893 349.495Z" fill="url(#paint51_linear_757_1010)"/>
<mask id="mask0_757_1010" style="mask-type:luminance" maskUnits="userSpaceOnUse" x="369" y="142" width="107" height="189">
<path d="M475.348 271.318V142.615L369.826 201.637V330.062L475.348 271.318Z" fill="white"/>
</mask>
<g mask="url(#mask0_757_1010)">
<path d="M386.059 231.813V278.692L432.294 252.483V205.233L386.059 231.813Z" fill="url(#paint52_linear_757_1010)"/>
<path d="M386.129 231.808V278.687L342.238 253.892V206.619L386.129 231.808Z" fill="url(#paint53_linear_757_1010)"/>
<path d="M342.238 206.623L386.129 231.812L432.293 205.233L388.308 180.183L342.238 206.623Z" fill="url(#paint54_linear_757_1010)"/>
<path opacity="0.5" d="M342.238 206.624L386.129 231.813L432.293 205.233L386.105 231.071L342.238 206.624Z" fill="url(#paint55_linear_757_1010)"/>
<path d="M405.668 220.73V233.289L416.114 227.45V214.496L405.668 220.73Z" fill="url(#paint56_linear_757_1010)"/>
<path d="M361.85 195.541L405.74 220.73L416.114 214.497L372.153 189.47L361.85 195.541Z" fill="url(#paint57_linear_757_1010)"/>
<path d="M394.847 248.819L391.199 259.919L393.568 258.575V271.807L396.15 270.347V257.115L398.518 255.771L394.847 248.819Z" fill="url(#paint58_linear_757_1010)"/>
<path d="M407.423 250.746L403.751 243.794L400.104 254.894L402.472 253.55V266.782L405.054 265.322V252.09L407.423 250.746Z" fill="url(#paint59_linear_757_1010)"/>
<g style="mix-blend-mode:multiply" opacity="0.5">
<path d="M327.102 197.839L370.992 223.028L417.156 196.449L373.195 171.398L327.102 197.839Z" fill="#F1D5BE"/>
</g>
</g>
<defs>
<linearGradient id="paint0_linear_757_1010" x1="147.676" y1="160.022" x2="482.95" y2="57.4089" gradientUnits="userSpaceOnUse">
<stop stop-color="#AFB6E5"/>
<stop offset="0.21" stop-color="#B5BCE8"/>
<stop offset="0.5" stop-color="#C7CDF0"/>
<stop offset="0.58" stop-color="#CED3F4"/>
<stop offset="0.88" stop-color="#DDE2FB"/>
<stop offset="1" stop-color="#E5E9FF"/>
</linearGradient>
<linearGradient id="paint1_linear_757_1010" x1="130.501" y1="158.538" x2="100.313" y2="163.641" gradientUnits="userSpaceOnUse">
<stop stop-color="#AFB6E5"/>
<stop offset="0.21" stop-color="#B5BCE8"/>
<stop offset="0.5" stop-color="#C7CDF0"/>
<stop offset="0.58" stop-color="#CED3F4"/>
<stop offset="0.88" stop-color="#DDE2FB"/>
<stop offset="1" stop-color="#E5E9FF"/>
</linearGradient>
<linearGradient id="paint2_linear_757_1010" x1="61.5534" y1="107.184" x2="47.7207" y2="107.184" gradientUnits="userSpaceOnUse">
<stop stop-color="#AFB6E5"/>
<stop offset="0.21" stop-color="#B5BCE8"/>
<stop offset="0.5" stop-color="#C7CDF0"/>
<stop offset="0.58" stop-color="#CED3F4"/>
<stop offset="0.88" stop-color="#DDE2FB"/>
<stop offset="1" stop-color="#E5E9FF"/>
</linearGradient>
<radialGradient id="paint3_radial_757_1010" cx="0" cy="0" r="1" gradientUnits="userSpaceOnUse" gradientTransform="translate(54.2129 102.642) rotate(180) scale(7.27163 7.11412)">
<stop stop-color="white"/>
<stop offset="1"/>
</radialGradient>
<linearGradient id="paint4_linear_757_1010" x1="29.4086" y1="167.901" x2="55.276" y2="238.718" gradientUnits="userSpaceOnUse">
<stop stop-color="#AFB6E5"/>
<stop offset="0.21" stop-color="#B5BCE8"/>
<stop offset="0.5" stop-color="#C7CDF0"/>
<stop offset="0.58" stop-color="#CED3F4"/>
<stop offset="0.88" stop-color="#DDE2FB"/>
<stop offset="1" stop-color="#E5E9FF"/>
</linearGradient>
<linearGradient id="paint5_linear_757_1010" x1="77.0909" y1="177.814" x2="26.8655" y2="199.648" gradientUnits="userSpaceOnUse">
<stop stop-color="#AFB6E5"/>
<stop offset="0.21" stop-color="#B5BCE8"/>
<stop offset="0.5" stop-color="#C7CDF0"/>
<stop offset="0.58" stop-color="#CED3F4"/>
<stop offset="0.88" stop-color="#DDE2FB"/>
<stop offset="1" stop-color="#E5E9FF"/>
</linearGradient>
<linearGradient id="paint6_linear_757_1010" x1="101.106" y1="225.462" x2="56.7188" y2="225.462" gradientUnits="userSpaceOnUse">
<stop stop-color="#AFB6E5"/>
<stop offset="0.21" stop-color="#B5BCE8"/>
<stop offset="0.5" stop-color="#C7CDF0"/>
<stop offset="0.58" stop-color="#CED3F4"/>
<stop offset="0.88" stop-color="#DDE2FB"/>
<stop offset="1" stop-color="#E5E9FF"/>
</linearGradient>
<linearGradient id="paint7_linear_757_1010" x1="101.107" y1="224.395" x2="62.0491" y2="224.395" gradientUnits="userSpaceOnUse">
<stop stop-color="#AFB6E5"/>
<stop offset="0.21" stop-color="#B5BCE8"/>
<stop offset="0.5" stop-color="#C7CDF0"/>
<stop offset="0.58" stop-color="#CED3F4"/>
<stop offset="0.88" stop-color="#DDE2FB"/>
<stop offset="1" stop-color="#E5E9FF"/>
</linearGradient>
<radialGradient id="paint8_radial_757_1010" cx="0" cy="0" r="1" gradientUnits="userSpaceOnUse" gradientTransform="translate(81.5668 225.575) rotate(180) scale(6.67948 6.5348)">
<stop stop-color="#EEEBF2"/>
<stop offset="0.58" stop-color="#D4D1D8"/>
<stop offset="0.94" stop-color="#A5A5B8"/>
<stop offset="1" stop-color="#9D9EB3"/>
</radialGradient>
<radialGradient id="paint9_radial_757_1010" cx="0" cy="0" r="1" gradientUnits="userSpaceOnUse" gradientTransform="translate(85.3318 224.443) scale(33.658 32.9289)">
<stop stop-color="white"/>
<stop offset="1"/>
</radialGradient>
<linearGradient id="paint10_linear_757_1010" x1="89.5726" y1="233.688" x2="75.0674" y2="213.825" gradientUnits="userSpaceOnUse">
<stop offset="0.01" stop-color="#AFB6E5"/>
<stop offset="0.11" stop-color="#B9BFE9"/>
<stop offset="0.27" stop-color="#D4D9F6"/>
<stop offset="0.36" stop-color="#E5E9FF"/>
<stop offset="0.39" stop-color="#DADFFA"/>
<stop offset="0.47" stop-color="#C2C8EE"/>
<stop offset="0.55" stop-color="#B4BAE7"/>
<stop offset="0.61" stop-color="#AFB6E5"/>
<stop offset="0.78" stop-color="#B9C0EA"/>
<stop offset="1" stop-color="#CED3F4"/>
</linearGradient>
<linearGradient id="paint11_linear_757_1010" x1="87.5111" y1="222.75" x2="51.609" y2="237.332" gradientUnits="userSpaceOnUse">
<stop stop-color="#AFB6E5"/>
<stop offset="0.21" stop-color="#B5BCE8"/>
<stop offset="0.5" stop-color="#C7CDF0"/>
<stop offset="0.58" stop-color="#CED3F4"/>
<stop offset="0.88" stop-color="#DDE2FB"/>
<stop offset="1" stop-color="#E5E9FF"/>
</linearGradient>
<linearGradient id="paint12_linear_757_1010" x1="99.0713" y1="258.229" x2="101.883" y2="159.509" gradientUnits="userSpaceOnUse">
<stop stop-color="#AFB6E5"/>
<stop offset="0.21" stop-color="#B5BCE8"/>
<stop offset="0.5" stop-color="#C7CDF0"/>
<stop offset="0.58" stop-color="#CED3F4"/>
<stop offset="0.88" stop-color="#DDE2FB"/>
<stop offset="1" stop-color="#E5E9FF"/>
</linearGradient>
<linearGradient id="paint13_linear_757_1010" x1="87.9864" y1="223.307" x2="134.603" y2="185.631" gradientUnits="userSpaceOnUse">
<stop stop-color="#AFB6E5"/>
<stop offset="0.21" stop-color="#B5BCE8"/>
<stop offset="0.5" stop-color="#C7CDF0"/>
<stop offset="0.58" stop-color="#CED3F4"/>
<stop offset="0.88" stop-color="#DDE2FB"/>
<stop offset="1" stop-color="#E5E9FF"/>
</linearGradient>
<linearGradient id="paint14_linear_757_1010" x1="106.082" y1="212.041" x2="-79.9009" y2="213.736" gradientUnits="userSpaceOnUse">
<stop stop-color="#AFB6E5"/>
<stop offset="0.21" stop-color="#B5BCE8"/>
<stop offset="0.5" stop-color="#C7CDF0"/>
<stop offset="0.58" stop-color="#CED3F4"/>
<stop offset="0.88" stop-color="#DDE2FB"/>
<stop offset="1" stop-color="#E5E9FF"/>
</linearGradient>
<radialGradient id="paint15_radial_757_1010" cx="0" cy="0" r="1" gradientUnits="userSpaceOnUse" gradientTransform="translate(91.9203 209.281) rotate(180) scale(20.9622 20.5081)">
<stop stop-color="white"/>
<stop offset="1"/>
</radialGradient>
<radialGradient id="paint16_radial_757_1010" cx="0" cy="0" r="1" gradientUnits="userSpaceOnUse" gradientTransform="translate(55.205 196.072) rotate(180) scale(13.4774 13.1855)">
<stop stop-color="white"/>
<stop offset="1"/>
</radialGradient>
<radialGradient id="paint17_radial_757_1010" cx="0" cy="0" r="1" gradientUnits="userSpaceOnUse" gradientTransform="translate(79.0857 203.389) rotate(-135.147) scale(39.2458 21.0614)">
<stop stop-color="#B887FF"/>
<stop offset="0.06" stop-color="#9E74DC"/>
<stop offset="0.16" stop-color="#7959A8"/>
<stop offset="0.26" stop-color="#59417B"/>
<stop offset="0.37" stop-color="#3D2D55"/>
<stop offset="0.48" stop-color="#271C36"/>
<stop offset="0.59" stop-color="#15101E"/>
<stop offset="0.71" stop-color="#09070D"/>
<stop offset="0.84" stop-color="#020103"/>
<stop offset="1"/>
</radialGradient>
<linearGradient id="paint18_linear_757_1010" x1="40.3091" y1="169.105" x2="32.9185" y2="173.038" gradientUnits="userSpaceOnUse">
<stop stop-color="#F36DD4"/>
<stop offset="0.19" stop-color="#F695DF"/>
<stop offset="0.44" stop-color="#F9C2ED"/>
<stop offset="0.66" stop-color="#FBE2F6"/>
<stop offset="0.85" stop-color="#FDF6FC"/>
<stop offset="0.97" stop-color="#FEFEFF"/>
<stop offset="1" stop-color="white"/>
</linearGradient>
<linearGradient id="paint19_linear_757_1010" x1="40.8302" y1="172.903" x2="34.4719" y2="176.284" gradientUnits="userSpaceOnUse">
<stop stop-color="#FF9E6E"/>
<stop offset="0.33" stop-color="#FFBC9B"/>
<stop offset="1" stop-color="white"/>
</linearGradient>
<linearGradient id="paint20_linear_757_1010" x1="34.8613" y1="170.215" x2="36.6772" y2="180.935" gradientUnits="userSpaceOnUse">
<stop stop-color="#AFB6E5"/>
<stop offset="0.21" stop-color="#B5BCE8"/>
<stop offset="0.5" stop-color="#C7CDF0"/>
<stop offset="0.58" stop-color="#CED3F4"/>
<stop offset="0.88" stop-color="#DDE2FB"/>
<stop offset="1" stop-color="#E5E9FF"/>
</linearGradient>
<linearGradient id="paint21_linear_757_1010" x1="38.6637" y1="171.823" x2="34.1085" y2="172.2" gradientUnits="userSpaceOnUse">
<stop offset="0.04" stop-color="#FF9E6E"/>
<stop offset="0.3" stop-color="#FFAD72"/>
<stop offset="0.82" stop-color="#FFD580"/>
<stop offset="1" stop-color="#FFE585"/>
</linearGradient>
<radialGradient id="paint22_radial_757_1010" cx="0" cy="0" r="1" gradientUnits="userSpaceOnUse" gradientTransform="translate(35.2134 174.972) rotate(113.292) scale(13.0411 8.55787)">
<stop stop-color="#FFE4A7"/>
<stop offset="0.06" stop-color="#DCC490"/>
<stop offset="0.16" stop-color="#A8976E"/>
<stop offset="0.26" stop-color="#7B6E51"/>
<stop offset="0.37" stop-color="#554C38"/>
<stop offset="0.48" stop-color="#363023"/>
<stop offset="0.59" stop-color="#1E1B13"/>
<stop offset="0.71" stop-color="#0D0B08"/>
<stop offset="0.84" stop-color="#030202"/>
<stop offset="1"/>
</radialGradient>
<linearGradient id="paint23_linear_757_1010" x1="126.574" y1="77.9182" x2="230.073" y2="279.535" gradientUnits="userSpaceOnUse">
<stop offset="0.1" stop-color="#33065C"/>
<stop offset="0.54" stop-color="#430D8B"/>
<stop offset="1" stop-color="#4513A3"/>
</linearGradient>
<linearGradient id="paint24_linear_757_1010" x1="201.236" y1="281.84" x2="194.48" y2="294.293" gradientUnits="userSpaceOnUse">
<stop stop-color="#AFB6E5"/>
<stop offset="0.21" stop-color="#B5BCE8"/>
<stop offset="0.5" stop-color="#C7CDF0"/>
<stop offset="0.58" stop-color="#CED3F4"/>
<stop offset="0.88" stop-color="#DDE2FB"/>
<stop offset="1" stop-color="#E5E9FF"/>
</linearGradient>
<linearGradient id="paint25_linear_757_1010" x1="151.113" y1="253.505" x2="174.897" y2="250.07" gradientUnits="userSpaceOnUse">
<stop stop-color="#AFB6E5"/>
<stop offset="0.21" stop-color="#B5BCE8"/>
<stop offset="0.5" stop-color="#C7CDF0"/>
<stop offset="0.58" stop-color="#CED3F4"/>
<stop offset="0.88" stop-color="#DDE2FB"/>
<stop offset="1" stop-color="#E5E9FF"/>
</linearGradient>
<linearGradient id="paint26_linear_757_1010" x1="81.5004" y1="322.84" x2="361.902" y2="211.234" gradientUnits="userSpaceOnUse">
<stop stop-color="#AFB6E5"/>
<stop offset="0.21" stop-color="#B5BCE8"/>
<stop offset="0.5" stop-color="#C7CDF0"/>
<stop offset="0.58" stop-color="#CED3F4"/>
<stop offset="0.88" stop-color="#DDE2FB"/>
<stop offset="1" stop-color="#E5E9FF"/>
</linearGradient>
<linearGradient id="paint27_linear_757_1010" x1="245.432" y1="306.104" x2="269.239" y2="302.669" gradientUnits="userSpaceOnUse">
<stop stop-color="#AFB6E5"/>
<stop offset="0.21" stop-color="#B5BCE8"/>
<stop offset="0.5" stop-color="#C7CDF0"/>
<stop offset="0.58" stop-color="#CED3F4"/>
<stop offset="0.88" stop-color="#DDE2FB"/>
<stop offset="1" stop-color="#E5E9FF"/>
</linearGradient>
<linearGradient id="paint28_linear_757_1010" x1="210.637" y1="232.763" x2="194.374" y2="262.404" gradientUnits="userSpaceOnUse">
<stop stop-color="#AFB6E5"/>
<stop offset="0.21" stop-color="#B5BCE8"/>
<stop offset="0.5" stop-color="#C7CDF0"/>
<stop offset="0.58" stop-color="#CED3F4"/>
<stop offset="0.88" stop-color="#DDE2FB"/>
<stop offset="1" stop-color="#E5E9FF"/>
</linearGradient>
<radialGradient id="paint29_radial_757_1010" cx="0" cy="0" r="1" gradientUnits="userSpaceOnUse" gradientTransform="translate(306.867 348.439) scale(33.4685 32.7435)">
<stop stop-color="white"/>
<stop offset="1"/>
</radialGradient>
<linearGradient id="paint30_linear_757_1010" x1="316.389" y1="342.344" x2="245.542" y2="382.003" gradientUnits="userSpaceOnUse">
<stop stop-color="#AFB6E5"/>
<stop offset="0.21" stop-color="#B5BCE8"/>
<stop offset="0.5" stop-color="#C7CDF0"/>
<stop offset="0.58" stop-color="#CED3F4"/>
<stop offset="0.88" stop-color="#DDE2FB"/>
<stop offset="1" stop-color="#E5E9FF"/>
</linearGradient>
<linearGradient id="paint31_linear_757_1010" x1="337.258" y1="335.603" x2="285.028" y2="363.279" gradientUnits="userSpaceOnUse">
<stop stop-color="#8770B8"/>
<stop offset="1" stop-color="white"/>
</linearGradient>
<linearGradient id="paint32_linear_757_1010" x1="296.47" y1="337.941" x2="308.565" y2="362.993" gradientUnits="userSpaceOnUse">
<stop offset="0.01" stop-color="#AFB6E5"/>
<stop offset="0.11" stop-color="#B9BFE9"/>
<stop offset="0.27" stop-color="#D4D9F6"/>
<stop offset="0.36" stop-color="#E5E9FF"/>
<stop offset="0.39" stop-color="#DADFFA"/>
<stop offset="0.47" stop-color="#C2C8EE"/>
<stop offset="0.55" stop-color="#B4BAE7"/>
<stop offset="0.61" stop-color="#AFB6E5"/>
<stop offset="0.78" stop-color="#B9C0EA"/>
<stop offset="1" stop-color="#CED3F4"/>
</linearGradient>
<linearGradient id="paint33_linear_757_1010" x1="329.868" y1="336.945" x2="285.64" y2="360.401" gradientUnits="userSpaceOnUse">
<stop stop-color="#AFB6E5"/>
<stop offset="0.21" stop-color="#B5BCE8"/>
<stop offset="0.5" stop-color="#C7CDF0"/>
<stop offset="0.58" stop-color="#CED3F4"/>
<stop offset="0.88" stop-color="#DDE2FB"/>
<stop offset="1" stop-color="#E5E9FF"/>
</linearGradient>
<linearGradient id="paint34_linear_757_1010" x1="372.55" y1="358.845" x2="344.821" y2="350.354" gradientUnits="userSpaceOnUse">
<stop stop-color="#AFB6E5"/>
<stop offset="0.21" stop-color="#B5BCE8"/>
<stop offset="0.5" stop-color="#C7CDF0"/>
<stop offset="0.58" stop-color="#CED3F4"/>
<stop offset="0.88" stop-color="#DDE2FB"/>
<stop offset="1" stop-color="#E5E9FF"/>
</linearGradient>
<linearGradient id="paint35_linear_757_1010" x1="381.529" y1="334.164" x2="648.365" y2="252.512" gradientUnits="userSpaceOnUse">
<stop stop-color="#AFB6E5"/>
<stop offset="0.21" stop-color="#B5BCE8"/>
<stop offset="0.5" stop-color="#C7CDF0"/>
<stop offset="0.58" stop-color="#CED3F4"/>
<stop offset="0.88" stop-color="#DDE2FB"/>
<stop offset="1" stop-color="#E5E9FF"/>
</linearGradient>
<linearGradient id="paint36_linear_757_1010" x1="410.234" y1="285.895" x2="420.211" y2="305.355" gradientUnits="userSpaceOnUse">
<stop stop-color="#AFB6E5"/>
<stop offset="0.21" stop-color="#B5BCE8"/>
<stop offset="0.5" stop-color="#C7CDF0"/>
<stop offset="0.58" stop-color="#CED3F4"/>
<stop offset="0.88" stop-color="#DDE2FB"/>
<stop offset="1" stop-color="#E5E9FF"/>
</linearGradient>
<linearGradient id="paint37_linear_757_1010" x1="365.375" y1="348.882" x2="335.64" y2="339.788" gradientUnits="userSpaceOnUse">
<stop stop-color="#4513A3"/>
<stop offset="0.54" stop-color="#430D8B"/>
<stop offset="1" stop-color="#33065C"/>
</linearGradient>
<linearGradient id="paint38_linear_757_1010" x1="409.573" y1="271.806" x2="420.282" y2="292.669" gradientUnits="userSpaceOnUse">
<stop stop-color="#25054D"/>
<stop offset="1" stop-color="#45108A"/>
</linearGradient>
<linearGradient id="paint39_linear_757_1010" x1="-87.5696" y1="285.185" x2="603.768" y2="126.776" gradientUnits="userSpaceOnUse">
<stop stop-color="#AFB6E5"/>
<stop offset="0.21" stop-color="#B5BCE8"/>
<stop offset="0.5" stop-color="#C7CDF0"/>
<stop offset="0.58" stop-color="#CED3F4"/>
<stop offset="0.88" stop-color="#DDE2FB"/>
<stop offset="1" stop-color="#E5E9FF"/>
</linearGradient>
<linearGradient id="paint40_linear_757_1010" x1="398.298" y1="330.18" x2="502.346" y2="292.216" gradientUnits="userSpaceOnUse">
<stop stop-color="#AFB6E5"/>
<stop offset="0.21" stop-color="#B5BCE8"/>
<stop offset="0.5" stop-color="#C7CDF0"/>
<stop offset="0.58" stop-color="#CED3F4"/>
<stop offset="0.88" stop-color="#DDE2FB"/>
<stop offset="1" stop-color="#E5E9FF"/>
</linearGradient>
<radialGradient id="paint41_radial_757_1010" cx="0" cy="0" r="1" gradientUnits="userSpaceOnUse" gradientTransform="translate(410.615 316.369) rotate(180) scale(14.8038 14.4831)">
<stop stop-color="white"/>
<stop offset="1"/>
</radialGradient>
<linearGradient id="paint42_linear_757_1010" x1="464.242" y1="291.273" x2="484.304" y2="291.273" gradientUnits="userSpaceOnUse">
<stop stop-color="#FF9E6E"/>
<stop offset="0.33" stop-color="#FFBC9B"/>
<stop offset="1" stop-color="white"/>
</linearGradient>
<linearGradient id="paint43_linear_757_1010" x1="465.046" y1="295.027" x2="470.921" y2="295.027" gradientUnits="userSpaceOnUse">
<stop offset="0.04" stop-color="#FF9E6E"/>
<stop offset="0.3" stop-color="#FFAD72"/>
<stop offset="0.82" stop-color="#FFD580"/>
<stop offset="1" stop-color="#FFE585"/>
</linearGradient>
<linearGradient id="paint44_linear_757_1010" x1="471.845" y1="295.124" x2="467.463" y2="295.124" gradientUnits="userSpaceOnUse">
<stop offset="0.04" stop-color="#FF9E6E"/>
<stop offset="0.3" stop-color="#FFAD72"/>
<stop offset="0.82" stop-color="#FFD580"/>
<stop offset="1" stop-color="#FFE585"/>
</linearGradient>
<linearGradient id="paint45_linear_757_1010" x1="476.181" y1="288.56" x2="482.055" y2="288.56" gradientUnits="userSpaceOnUse">
<stop offset="0.02" stop-color="#836DF3"/>
<stop offset="0.54" stop-color="#BB6DF3"/>
<stop offset="0.69" stop-color="#CA6DEA"/>
<stop offset="1" stop-color="#F36DD4"/>
</linearGradient>
<linearGradient id="paint46_linear_757_1010" x1="483.003" y1="288.656" x2="478.621" y2="288.656" gradientUnits="userSpaceOnUse">
<stop offset="0.02" stop-color="#836DF3"/>
<stop offset="0.54" stop-color="#BB6DF3"/>
<stop offset="0.69" stop-color="#CA6DEA"/>
<stop offset="1" stop-color="#F36DD4"/>
</linearGradient>
<linearGradient id="paint47_linear_757_1010" x1="367.512" y1="348.095" x2="377.602" y2="348.095" gradientUnits="userSpaceOnUse">
<stop stop-color="#FF9E6E"/>
<stop offset="0.33" stop-color="#FFBC9B"/>
<stop offset="1" stop-color="white"/>
</linearGradient>
<linearGradient id="paint48_linear_757_1010" x1="358.345" y1="354.629" x2="364.219" y2="354.629" gradientUnits="userSpaceOnUse">
<stop offset="0.02" stop-color="#836DF3"/>
<stop offset="0.54" stop-color="#BB6DF3"/>
<stop offset="0.69" stop-color="#CA6DEA"/>
<stop offset="1" stop-color="#F36DD4"/>
</linearGradient>
<linearGradient id="paint49_linear_757_1010" x1="365.167" y1="354.727" x2="360.762" y2="354.727" gradientUnits="userSpaceOnUse">
<stop offset="0.02" stop-color="#836DF3"/>
<stop offset="0.54" stop-color="#BB6DF3"/>
<stop offset="0.69" stop-color="#CA6DEA"/>
<stop offset="1" stop-color="#F36DD4"/>
</linearGradient>
<linearGradient id="paint50_linear_757_1010" x1="369.5" y1="348.17" x2="375.35" y2="348.17" gradientUnits="userSpaceOnUse">
<stop offset="0.04" stop-color="#FF9E6E"/>
<stop offset="0.3" stop-color="#FFAD72"/>
<stop offset="0.82" stop-color="#FFD580"/>
<stop offset="1" stop-color="#FFE585"/>
</linearGradient>
<linearGradient id="paint51_linear_757_1010" x1="376.298" y1="348.267" x2="371.916" y2="348.267" gradientUnits="userSpaceOnUse">
<stop offset="0.04" stop-color="#FF9E6E"/>
<stop offset="0.3" stop-color="#FFAD72"/>
<stop offset="0.82" stop-color="#FFD580"/>
<stop offset="1" stop-color="#FFE585"/>
</linearGradient>
<linearGradient id="paint52_linear_757_1010" x1="328.667" y1="265.553" x2="449.235" y2="228.647" gradientUnits="userSpaceOnUse">
<stop offset="0.04" stop-color="#E67A45"/>
<stop offset="0.33" stop-color="#EC894C"/>
<stop offset="0.89" stop-color="#FBB161"/>
<stop offset="1" stop-color="#FFBA66"/>
</linearGradient>
<linearGradient id="paint53_linear_757_1010" x1="289.489" y1="259.037" x2="441.772" y2="224.127" gradientUnits="userSpaceOnUse">
<stop offset="0.04" stop-color="#FF9E6E"/>
<stop offset="0.3" stop-color="#FFAD72"/>
<stop offset="0.82" stop-color="#FFD580"/>
<stop offset="1" stop-color="#FFE585"/>
</linearGradient>
<linearGradient id="paint54_linear_757_1010" x1="435.467" y1="116.063" x2="385.33" y2="213.714" gradientUnits="userSpaceOnUse">
<stop offset="0.04" stop-color="#FF9E6E"/>
<stop offset="0.3" stop-color="#FFAD72"/>
<stop offset="0.82" stop-color="#FFD580"/>
<stop offset="1" stop-color="#FFE585"/>
</linearGradient>
<linearGradient id="paint55_linear_757_1010" x1="432.672" y1="121.254" x2="384.916" y2="214.32" gradientUnits="userSpaceOnUse">
<stop stop-color="#AFB6E5"/>
<stop offset="0.14" stop-color="#B5BCE8"/>
<stop offset="0.35" stop-color="#C7CDF0"/>
<stop offset="0.58" stop-color="#E5E9FF"/>
<stop offset="0.86" stop-color="#F4F6FF"/>
<stop offset="1" stop-color="white"/>
</linearGradient>
<linearGradient id="paint56_linear_757_1010" x1="408.723" y1="224.53" x2="437.137" y2="215.846" gradientUnits="userSpaceOnUse">
<stop offset="0.04" stop-color="#E67A45"/>
<stop offset="0.33" stop-color="#EC894C"/>
<stop offset="0.89" stop-color="#FBB161"/>
<stop offset="1" stop-color="#FFBA66"/>
</linearGradient>
<linearGradient id="paint57_linear_757_1010" x1="401.761" y1="181.197" x2="388.443" y2="207.136" gradientUnits="userSpaceOnUse">
<stop offset="0.04" stop-color="#E67A45"/>
<stop offset="0.33" stop-color="#EC894C"/>
<stop offset="0.89" stop-color="#FBB161"/>
<stop offset="1" stop-color="#FFBA66"/>
</linearGradient>
<linearGradient id="paint58_linear_757_1010" x1="-3752.15" y1="2602.03" x2="-3731.7" y2="2601.43" gradientUnits="userSpaceOnUse">
<stop offset="0.04" stop-color="#E67A45"/>
<stop offset="0.33" stop-color="#EC894C"/>
<stop offset="0.89" stop-color="#FBB161"/>
<stop offset="1" stop-color="#FFBA66"/>
</linearGradient>
<linearGradient id="paint59_linear_757_1010" x1="-3743.25" y1="2597" x2="-3722.8" y2="2596.4" gradientUnits="userSpaceOnUse">
<stop offset="0.04" stop-color="#E67A45"/>
<stop offset="0.33" stop-color="#EC894C"/>
<stop offset="0.89" stop-color="#FBB161"/>
<stop offset="1" stop-color="#FFBA66"/>
</linearGradient>
</defs>
</svg>
