<svg width="26.0625rem" height="20.0625rem" viewBox="0 0 417 321" fill="none" xmlns="http://www.w3.org/2000/svg">
<g clip-path="url(#clip0_2104_3034)">
<path d="M113.511 139.332L110 142.26L161.093 148.63C168.561 151.585 176.326 153.721 184.253 155C186.935 128.926 214.553 108.392 248.168 108.392C261.78 108.392 274.405 111.755 284.821 117.532C291.291 107.68 295 96.562 295 84.7715C295 45.1666 253.731 13 203.033 13C152.334 13 111.026 45.1666 111.026 84.7715C111.026 98.9755 116.352 112.665 126.413 124.456H126.334L127.32 125.524C126.176 127.858 119.508 134.307 113.511 139.332ZM141.761 52.9214H261.661V59.4497H141.761V52.9214ZM141.761 77.1354H261.661V83.6637H141.761V77.1354ZM141.761 101.349H205.242V107.917H141.761V101.349Z" fill="#C4DFFF"/>
<path d="M189 158.558C189 183.713 215.455 204.155 248 204.155C255.123 204.164 262.209 203.137 269.038 201.105L270.461 200.708L287.03 216V192.706L288.098 191.914C300.119 183.278 307 171.155 307 158.558C307 133.442 280.545 113 248 113C215.455 113 189 133.442 189 158.558Z" fill="#E3E5E8"/>
<path d="M269.421 175.691C269.27 176.325 268.928 176.896 268.442 177.327C268.146 177.566 267.802 177.737 267.433 177.829C267.065 177.92 266.681 177.93 266.308 177.857C265.935 177.785 265.583 177.631 265.275 177.408C264.968 177.184 264.712 176.896 264.527 176.564C264.122 175.657 263.649 174.782 263.114 173.946C260.912 170.56 257.478 168.172 253.545 167.292C251.109 166.622 248.555 166.509 246.071 166.962C243.586 167.415 241.235 168.423 239.191 169.91C237.126 171.344 235.475 173.301 234.407 175.582L234.08 176.455C233.792 177.091 233.263 177.587 232.611 177.832C231.958 178.078 231.235 178.053 230.601 177.764C229.966 177.474 229.472 176.944 229.228 176.29C228.983 175.635 229.007 174.91 229.296 174.273C230.964 170.302 233.861 166.974 237.56 164.783C240.141 163.176 243.031 162.135 246.042 161.729C249.165 161.252 252.354 161.453 255.393 162.319C258.432 163.184 261.25 164.694 263.657 166.747C266.046 168.762 267.943 171.299 269.203 174.164C269.312 174.382 269.312 174.709 269.421 174.928V175.691Z" fill="white"/>
<path d="M237.107 144.563C237.052 145.982 236.458 147.326 235.447 148.319C234.436 149.313 233.085 149.881 231.67 149.908C230.374 149.723 229.188 149.075 228.33 148.083C227.472 147.091 227 145.822 227 144.509C227 143.195 227.472 141.926 228.33 140.934C229.188 139.942 230.374 139.294 231.67 139.109C233.112 139.109 234.495 139.684 235.514 140.707C236.534 141.729 237.107 143.117 237.107 144.563Z" fill="white"/>
<path d="M266.559 149.908C265.474 149.907 264.415 149.581 263.517 148.972C262.618 148.362 261.923 147.497 261.518 146.488C261.114 145.478 261.02 144.371 261.248 143.307C261.476 142.244 262.016 141.273 262.798 140.52C263.58 139.766 264.569 139.265 265.638 139.08C266.706 138.894 267.806 139.034 268.794 139.48C269.783 139.927 270.617 140.66 271.187 141.585C271.757 142.51 272.039 143.585 271.996 144.672C271.939 146.081 271.342 147.412 270.328 148.389C269.315 149.365 267.964 149.909 266.559 149.908Z" fill="white"/>
<path d="M262 56.2661C262 54.4623 260.538 53 258.734 53H145.266C143.462 53 142 54.4623 142 56.2661C142 58.07 143.462 59.5323 145.266 59.5323H258.734C260.538 59.5323 262 58.07 262 56.2661Z" fill="white"/>
<path d="M262 80.4802C262 78.6764 260.538 77.2141 258.734 77.2141H145.266C143.462 77.2141 142 78.6764 142 80.4802C142 82.284 143.462 83.7463 145.266 83.7463H258.734C260.538 83.7463 262 82.284 262 80.4802Z" fill="white"/>
<path d="M205.534 104.734C205.534 102.93 204.072 101.468 202.268 101.468H145.266C143.462 101.468 142 102.93 142 104.734C142 106.538 143.462 108 145.266 108H202.268C204.072 108 205.534 106.538 205.534 104.734Z" fill="white"/>
<path d="M308.5 53L317 61.5L308.5 70L300 61.5L308.5 53Z" fill="#D9D9D9"/>
<path d="M116.446 5.42462C117.227 4.64357 118.493 4.64357 119.274 5.42462C120.055 6.20567 120.055 7.472 119.274 8.25305L107.253 20.2739C106.472 21.0549 105.206 21.0549 104.425 20.2739C103.644 19.4928 103.644 18.2265 104.425 17.4454L116.446 5.42462Z" fill="#D9D9D9"/>
<path d="M119.274 17.4454C120.055 18.2265 120.055 19.4928 119.274 20.2739C118.493 21.0549 117.227 21.0549 116.446 20.2739L104.425 8.25305C103.644 7.472 103.644 6.20567 104.425 5.42462C105.206 4.64357 106.472 4.64357 107.253 5.42462L119.274 17.4454Z" fill="#D9D9D9"/>
<path d="M276.5 0L278.015 6.98538L285 8.5L278.015 10.0146L276.5 17L274.985 10.0146L268 8.5L274.985 6.98538L276.5 0Z" fill="#D9D9D9"/>
</g>
<path d="M5.65688 316H4.48088V305.608H0.456875V304.48H9.68088V305.608H5.65688V316ZM12.1398 316H10.9558V304.48H12.0198V308.56C12.6598 307.624 13.6838 307.144 14.9238 307.144C17.5158 307.144 18.3878 309.304 18.3878 311.248V316H17.2038V311.592C17.2038 309.688 16.5078 308.264 14.6998 308.264C13.0358 308.264 12.1398 309.44 12.1398 311.392V316ZM24.1198 316.24C21.5998 316.24 19.9838 314.456 19.9838 311.72C19.9838 308.888 21.5758 307.12 24.0718 307.12C26.6318 307.12 28.1358 308.96 28.0478 312.008H21.2398C21.3358 313.992 22.3518 315.112 24.0718 315.112C25.3038 315.112 26.2478 314.528 26.7838 313.448L27.8798 313.872C27.1918 315.384 25.7918 316.24 24.1198 316.24ZM24.1038 308.2C22.4398 308.2 21.4478 309.208 21.2638 311.024H26.8158C26.6318 309.16 25.7118 308.2 24.1038 308.2ZM30.9991 316H29.8231V307.36H30.8791V308.728C31.0631 308.4 31.3031 308.12 31.5511 307.928C32.2311 307.336 33.3111 307.168 34.0711 307.36V308.464C33.4311 308.312 32.6311 308.344 32.0071 308.856C31.1431 309.536 30.9991 310.656 30.9991 311.688V316ZM39.0885 316.24C36.5685 316.24 34.9525 314.456 34.9525 311.72C34.9525 308.888 36.5445 307.12 39.0405 307.12C41.6005 307.12 43.1045 308.96 43.0165 312.008H36.2085C36.3045 313.992 37.3205 315.112 39.0405 315.112C40.2725 315.112 41.2165 314.528 41.7525 313.448L42.8485 313.872C42.1605 315.384 40.7605 316.24 39.0885 316.24ZM39.0725 308.2C37.4085 308.2 36.4165 309.208 36.2325 311.024H41.7845C41.6005 309.16 40.6805 308.2 39.0725 308.2ZM50.467 316.24C48.507 316.24 47.515 315.056 47.515 313.68C47.515 312.264 48.427 311.512 49.715 311.168C50.883 310.888 52.499 310.704 53.651 310.544C53.627 308.984 52.987 308.232 51.347 308.232C50.163 308.232 49.315 308.744 48.987 309.896L47.843 309.56C48.243 308.016 49.459 307.12 51.363 307.12C52.939 307.12 54.091 307.728 54.547 308.848C54.755 309.352 54.803 309.992 54.803 310.632V316H53.755V314.568C53.083 315.664 51.939 316.24 50.467 316.24ZM50.603 315.224C52.251 315.224 53.299 314.256 53.523 312.952C53.619 312.528 53.635 311.968 53.635 311.576C52.499 311.712 51.139 311.848 50.187 312.112C49.451 312.328 48.691 312.744 48.691 313.68C48.691 314.432 49.211 315.224 50.603 315.224ZM58.0616 316H56.8856V307.36H57.9416V308.728C58.1256 308.4 58.3656 308.12 58.6136 307.928C59.2936 307.336 60.3736 307.168 61.1336 307.36V308.464C60.4936 308.312 59.6936 308.344 59.0696 308.856C58.2056 309.536 58.0616 310.656 58.0616 311.688V316ZM66.151 316.24C63.631 316.24 62.015 314.456 62.015 311.72C62.015 308.888 63.607 307.12 66.103 307.12C68.663 307.12 70.167 308.96 70.079 312.008H63.271C63.367 313.992 64.383 315.112 66.103 315.112C67.335 315.112 68.279 314.528 68.815 313.448L69.911 313.872C69.223 315.384 67.823 316.24 66.151 316.24ZM66.135 308.2C64.471 308.2 63.479 309.208 63.295 311.024H68.847C68.663 309.16 67.743 308.2 66.135 308.2ZM76.2335 316H75.0495V307.36H76.1135V308.56C76.7535 307.624 77.7775 307.144 79.0175 307.144C81.6095 307.144 82.4815 309.304 82.4815 311.248V316H81.2975V311.592C81.2975 309.688 80.6015 308.264 78.7935 308.264C77.1295 308.264 76.2335 309.44 76.2335 311.392V316ZM88.103 316.24C85.527 316.24 84.015 314.352 84.015 311.672C84.015 308.952 85.575 307.12 88.103 307.12C90.695 307.12 92.199 309 92.199 311.672C92.199 314.392 90.663 316.24 88.103 316.24ZM88.103 315.112C90.023 315.112 90.951 313.712 90.951 311.672C90.951 309.592 90.007 308.248 88.103 308.248C86.167 308.248 85.263 309.656 85.263 311.672C85.263 313.752 86.231 315.112 88.103 315.112ZM98.3429 316H97.1589V307.36H98.2149V308.272C98.7509 307.568 99.6229 307.128 100.647 307.128C101.783 307.128 102.703 307.64 103.167 308.584C103.671 307.672 104.631 307.128 105.783 307.128C107.527 307.128 108.655 308.28 108.655 310.104L108.647 316H107.471L107.479 310.328C107.479 308.992 106.647 308.184 105.511 308.184C104.527 308.184 103.495 308.816 103.495 310.424L103.487 316H102.327L102.335 310.408C102.335 309.032 101.535 308.184 100.343 308.184C99.1429 308.184 98.3429 309.072 98.3429 310.424V316ZM114.323 316.24C111.803 316.24 110.187 314.456 110.187 311.72C110.187 308.888 111.779 307.12 114.275 307.12C116.835 307.12 118.339 308.96 118.251 312.008H111.443C111.539 313.992 112.555 315.112 114.275 315.112C115.507 315.112 116.451 314.528 116.987 313.448L118.083 313.872C117.395 315.384 115.995 316.24 114.323 316.24ZM114.307 308.2C112.643 308.2 111.651 309.208 111.467 311.024H117.019C116.835 309.16 115.915 308.2 114.307 308.2ZM123.25 316.232C121.226 316.232 119.842 315.312 119.546 313.752L120.746 313.552C120.994 314.536 121.97 315.16 123.314 315.16C124.626 315.16 125.434 314.568 125.434 313.624C125.434 312.824 125.066 312.584 122.874 311.992C120.53 311.36 119.81 310.792 119.81 309.584C119.81 308.112 121.138 307.12 123.09 307.12C125.042 307.12 126.466 308.136 126.642 309.64L125.442 309.856C125.274 308.84 124.37 308.216 123.074 308.192C121.85 308.168 121.002 308.712 121.002 309.528C121.002 310.216 121.49 310.536 123.53 311.048C125.914 311.656 126.658 312.272 126.658 313.608C126.658 315.24 125.37 316.232 123.25 316.232ZM131.657 316.232C129.633 316.232 128.249 315.312 127.953 313.752L129.153 313.552C129.401 314.536 130.377 315.16 131.72 315.16C133.033 315.16 133.841 314.568 133.841 313.624C133.841 312.824 133.473 312.584 131.281 311.992C128.937 311.36 128.217 310.792 128.217 309.584C128.217 308.112 129.545 307.12 131.497 307.12C133.449 307.12 134.873 308.136 135.049 309.64L133.849 309.856C133.681 308.84 132.777 308.216 131.481 308.192C130.257 308.168 129.409 308.712 129.409 309.528C129.409 310.216 129.897 310.536 131.937 311.048C134.321 311.656 135.065 312.272 135.065 313.608C135.065 315.24 133.777 316.232 131.657 316.232ZM139.311 316.24C137.351 316.24 136.359 315.056 136.359 313.68C136.359 312.264 137.271 311.512 138.559 311.168C139.727 310.888 141.343 310.704 142.495 310.544C142.471 308.984 141.831 308.232 140.191 308.232C139.007 308.232 138.159 308.744 137.831 309.896L136.687 309.56C137.087 308.016 138.303 307.12 140.207 307.12C141.783 307.12 142.935 307.728 143.391 308.848C143.599 309.352 143.647 309.992 143.647 310.632V316H142.599V314.568C141.927 315.664 140.783 316.24 139.311 316.24ZM139.447 315.224C141.095 315.224 142.143 314.256 142.367 312.952C142.463 312.528 142.479 311.968 142.479 311.576C141.343 311.712 139.983 311.848 139.031 312.112C138.295 312.328 137.535 312.744 137.535 313.68C137.535 314.432 138.055 315.224 139.447 315.224ZM149.081 316.24C146.657 316.24 145.249 314.264 145.249 311.672C145.249 309.096 146.665 307.12 149.033 307.12C150.313 307.12 151.281 307.656 151.913 308.552V307.36H152.961V315.88C152.961 316.376 152.937 316.816 152.865 317.256C152.553 319.184 151.273 320.08 149.161 320.08C147.833 320.08 146.489 319.52 145.753 318.176L146.817 317.584C147.289 318.544 148.249 318.936 149.161 318.936C151.033 318.936 151.785 317.896 151.777 315.864V314.976C151.153 315.76 150.249 316.24 149.081 316.24ZM149.201 315.144C151.041 315.144 151.913 313.672 151.913 311.672C151.913 309.64 151.025 308.216 149.225 308.216C147.369 308.216 146.497 309.72 146.497 311.672C146.497 313.64 147.401 315.144 149.201 315.144ZM158.854 316.24C156.334 316.24 154.718 314.456 154.718 311.72C154.718 308.888 156.31 307.12 158.806 307.12C161.366 307.12 162.87 308.96 162.782 312.008H155.974C156.07 313.992 157.086 315.112 158.806 315.112C160.038 315.112 160.982 314.528 161.518 313.448L162.614 313.872C161.926 315.384 160.526 316.24 158.854 316.24ZM158.838 308.2C157.174 308.2 156.182 309.208 155.998 311.024H161.55C161.366 309.16 160.446 308.2 158.838 308.2ZM167.782 316.232C165.758 316.232 164.374 315.312 164.078 313.752L165.278 313.552C165.526 314.536 166.502 315.16 167.845 315.16C169.158 315.16 169.966 314.568 169.966 313.624C169.966 312.824 169.598 312.584 167.406 311.992C165.062 311.36 164.342 310.792 164.342 309.584C164.342 308.112 165.67 307.12 167.622 307.12C169.574 307.12 170.998 308.136 171.174 309.64L169.974 309.856C169.806 308.84 168.902 308.216 167.606 308.192C166.382 308.168 165.534 308.712 165.534 309.528C165.534 310.216 166.022 310.536 168.062 311.048C170.446 311.656 171.19 312.272 171.19 313.608C171.19 315.24 169.902 316.232 167.782 316.232ZM177.503 305.72H176.327V304.4H177.503V305.72ZM177.503 316H176.327V307.36H177.503V316ZM181.077 316H179.893V307.36H180.957V308.56C181.597 307.624 182.621 307.144 183.861 307.144C186.453 307.144 187.325 309.304 187.325 311.248V316H186.141V311.592C186.141 309.688 185.445 308.264 183.637 308.264C181.973 308.264 181.077 309.44 181.077 311.392V316ZM195.012 319.84H193.836L195.26 315.976L191.748 307.36H192.996L195.836 314.464L198.452 307.36H199.652L195.012 319.84ZM204.337 316.24C201.761 316.24 200.249 314.352 200.249 311.672C200.249 308.952 201.809 307.12 204.337 307.12C206.929 307.12 208.433 309 208.433 311.672C208.433 314.392 206.897 316.24 204.337 316.24ZM204.337 315.112C206.257 315.112 207.185 313.712 207.185 311.672C207.185 309.592 206.241 308.248 204.337 308.248C202.401 308.248 201.497 309.656 201.497 311.672C201.497 313.752 202.465 315.112 204.337 315.112ZM213.502 316.216C210.91 316.216 210.038 314.056 210.038 312.112V307.36H211.222V311.768C211.222 313.672 211.918 315.096 213.726 315.096C215.39 315.096 216.286 313.92 216.286 311.968V307.36H217.462V316H216.406V314.8C215.766 315.736 214.742 316.216 213.502 316.216ZM220.874 316H219.698V307.36H220.754V308.728C220.938 308.4 221.178 308.12 221.426 307.928C222.106 307.336 223.186 307.168 223.946 307.36V308.464C223.306 308.312 222.506 308.344 221.882 308.856C221.018 309.536 220.874 310.656 220.874 311.688V316ZM230.003 305.72H228.827V304.4H230.003V305.72ZM230.003 316H228.827V307.36H230.003V316ZM233.577 316H232.393V307.36H233.457V308.56C234.097 307.624 235.121 307.144 236.361 307.144C238.953 307.144 239.825 309.304 239.825 311.248V316H238.641V311.592C238.641 309.688 237.945 308.264 236.137 308.264C234.473 308.264 233.577 309.44 233.577 311.392V316ZM242.949 316H241.893V304.48H243.077V308.376C243.709 307.592 244.629 307.12 245.829 307.12C248.197 307.12 249.613 309.096 249.613 311.672C249.613 314.264 248.205 316.24 245.781 316.24C244.525 316.24 243.573 315.688 242.949 314.792V316ZM245.661 315.144C247.461 315.144 248.365 313.64 248.365 311.672C248.365 309.72 247.493 308.216 245.637 308.216C243.837 308.216 242.949 309.64 242.949 311.672C242.949 313.672 243.821 315.144 245.661 315.144ZM254.978 316.24C252.402 316.24 250.89 314.352 250.89 311.672C250.89 308.952 252.45 307.12 254.978 307.12C257.57 307.12 259.074 309 259.074 311.672C259.074 314.392 257.538 316.24 254.978 316.24ZM254.978 315.112C256.898 315.112 257.826 313.712 257.826 311.672C257.826 309.592 256.882 308.248 254.978 308.248C253.042 308.248 252.138 309.656 252.138 311.672C252.138 313.752 253.106 315.112 254.978 315.112ZM261.139 316H259.723L263.099 311.632L259.795 307.36H261.203L263.786 310.728L266.347 307.36H267.755L264.451 311.632L267.835 316H266.419L263.786 312.536L261.139 316ZM270.712 316H269.344V314.632H270.712V316ZM280.386 316.24C277.978 316.24 276.194 314.968 275.802 312.92L277.002 312.72C277.386 314.216 278.714 315.112 280.434 315.112C282.138 315.112 283.394 314.264 283.394 312.904C283.394 311.72 282.426 311.28 281.626 311.04L278.706 310.168C277.298 309.752 276.25 308.952 276.25 307.408C276.25 305.464 277.914 304.24 280.186 304.248C282.49 304.256 284.154 305.536 284.53 307.608L283.298 307.832C283.066 306.336 281.786 305.384 280.178 305.368C278.634 305.36 277.49 306.216 277.49 307.36C277.49 308.528 278.642 308.92 279.538 309.176L281.794 309.84C282.73 310.104 284.594 310.672 284.594 312.856C284.594 315 282.794 316.24 280.386 316.24ZM290.949 314.968V316C289.485 316.304 287.973 316.12 287.405 314.968C287.093 314.336 287.133 313.72 287.133 312.872V308.368H285.285V307.36H287.133V304.96H288.301V307.36H290.949V308.368H288.301V312.824C288.301 313.552 288.269 314.008 288.477 314.376C288.861 315.096 289.709 315.168 290.949 314.968ZM295.123 316.24C293.163 316.24 292.171 315.056 292.171 313.68C292.171 312.264 293.083 311.512 294.371 311.168C295.539 310.888 297.155 310.704 298.307 310.544C298.283 308.984 297.643 308.232 296.003 308.232C294.819 308.232 293.971 308.744 293.643 309.896L292.499 309.56C292.899 308.016 294.115 307.12 296.019 307.12C297.595 307.12 298.747 307.728 299.203 308.848C299.411 309.352 299.459 309.992 299.459 310.632V316H298.411V314.568C297.739 315.664 296.595 316.24 295.123 316.24ZM295.259 315.224C296.907 315.224 297.955 314.256 298.179 312.952C298.275 312.528 298.291 311.968 298.291 311.576C297.155 311.712 295.795 311.848 294.843 312.112C294.107 312.328 293.347 312.744 293.347 313.68C293.347 314.432 293.867 315.224 295.259 315.224ZM302.718 316H301.542V307.36H302.598V308.728C302.782 308.4 303.022 308.12 303.27 307.928C303.95 307.336 305.03 307.168 305.79 307.36V308.464C305.15 308.312 304.35 308.344 303.726 308.856C302.862 309.536 302.718 310.656 302.718 311.688V316ZM312.012 314.968V316C310.548 316.304 309.036 316.12 308.468 314.968C308.156 314.336 308.196 313.72 308.196 312.872V308.368H306.348V307.36H308.196V304.96H309.364V307.36H312.012V308.368H309.364V312.824C309.364 313.552 309.332 314.008 309.54 314.376C309.924 315.096 310.772 315.168 312.012 314.968ZM320.501 316.24C317.885 316.24 316.469 314.344 316.437 311.68C316.469 308.96 317.925 307.12 320.509 307.12C322.253 307.12 323.645 308.032 324.125 309.512L322.973 309.88C322.565 308.848 321.629 308.248 320.501 308.248C318.589 308.248 317.709 309.664 317.685 311.68C317.709 313.752 318.645 315.112 320.501 315.112C321.669 315.112 322.509 314.568 322.941 313.528L324.125 313.88C323.477 315.416 322.213 316.24 320.501 316.24ZM326.952 316H325.768V304.48H326.832V308.56C327.472 307.624 328.496 307.144 329.736 307.144C332.328 307.144 333.2 309.304 333.2 311.248V316H332.016V311.592C332.016 309.688 331.32 308.264 329.512 308.264C327.848 308.264 326.952 309.44 326.952 311.392V316ZM337.748 316.24C335.788 316.24 334.796 315.056 334.796 313.68C334.796 312.264 335.708 311.512 336.996 311.168C338.164 310.888 339.78 310.704 340.932 310.544C340.908 308.984 340.268 308.232 338.628 308.232C337.444 308.232 336.596 308.744 336.268 309.896L335.124 309.56C335.524 308.016 336.74 307.12 338.644 307.12C340.22 307.12 341.372 307.728 341.828 308.848C342.036 309.352 342.084 309.992 342.084 310.632V316H341.036V314.568C340.364 315.664 339.22 316.24 337.748 316.24ZM337.884 315.224C339.532 315.224 340.58 314.256 340.804 312.952C340.9 312.528 340.916 311.968 340.916 311.576C339.78 311.712 338.42 311.848 337.468 312.112C336.732 312.328 335.972 312.744 335.972 313.68C335.972 314.432 336.492 315.224 337.884 315.224ZM348.871 314.968V316C347.407 316.304 345.895 316.12 345.327 314.968C345.015 314.336 345.055 313.72 345.055 312.872V308.368H343.207V307.36H345.055V304.96H346.223V307.36H350.503V304.96H351.679V307.36H354.319V308.368H351.679V312.824C351.679 313.552 351.647 314.008 351.855 314.376C352.239 315.096 353.087 315.168 354.319 314.968V316C352.863 316.304 351.343 316.12 350.783 314.968C350.463 314.336 350.503 313.72 350.503 312.872V308.368H346.223V312.824C346.223 313.552 346.191 314.008 346.399 314.376C346.783 315.096 347.631 315.168 348.871 314.968ZM357.362 305.72H356.186V304.4H357.362V305.72ZM357.362 316H356.186V307.36H357.362V316ZM360.937 316H359.753V307.36H360.817V308.56C361.457 307.624 362.481 307.144 363.721 307.144C366.313 307.144 367.185 309.304 367.185 311.248V316H366.001V311.592C366.001 309.688 365.305 308.264 363.497 308.264C361.833 308.264 360.937 309.44 360.937 311.392V316ZM372.613 316.24C370.189 316.24 368.781 314.264 368.781 311.672C368.781 309.096 370.197 307.12 372.565 307.12C373.845 307.12 374.813 307.656 375.445 308.552V307.36H376.493V315.88C376.493 316.376 376.469 316.816 376.397 317.256C376.085 319.184 374.805 320.08 372.693 320.08C371.365 320.08 370.021 319.52 369.285 318.176L370.349 317.584C370.821 318.544 371.781 318.936 372.693 318.936C374.565 318.936 375.317 317.896 375.309 315.864V314.976C374.685 315.76 373.781 316.24 372.613 316.24ZM372.733 315.144C374.573 315.144 375.445 313.672 375.445 311.672C375.445 309.64 374.557 308.216 372.757 308.216C370.901 308.216 370.029 309.72 370.029 311.672C370.029 313.64 370.933 315.144 372.733 315.144ZM383.109 316H381.925V307.36H382.989V308.56C383.629 307.624 384.653 307.144 385.893 307.144C388.485 307.144 389.357 309.304 389.357 311.248V316H388.173V311.592C388.173 309.688 387.477 308.264 385.669 308.264C384.005 308.264 383.109 309.44 383.109 311.392V316ZM394.978 316.24C392.402 316.24 390.89 314.352 390.89 311.672C390.89 308.952 392.45 307.12 394.978 307.12C397.57 307.12 399.074 309 399.074 311.672C399.074 314.392 397.538 316.24 394.978 316.24ZM394.978 315.112C396.898 315.112 397.826 313.712 397.826 311.672C397.826 309.592 396.882 308.248 394.978 308.248C393.042 308.248 392.138 309.656 392.138 311.672C392.138 313.752 393.106 315.112 394.978 315.112ZM403.39 316H402.366L399.726 307.352L400.902 307.36L402.95 314.072L405.006 307.36H406.078L408.134 314.072L410.198 307.36H411.366L408.726 316H407.702L405.542 309.12L403.39 316ZM414.784 313.12H413.608V304.48H414.784V313.12ZM414.784 316H413.608V314.68H414.784V316Z" fill="#8D94A6"/>
<path d="M87.7009 282H84.5209V260.4H87.7009L98.3359 276.45V260.4H101.516V282H98.3359L87.7009 265.935V282ZM112.738 282.45C107.878 282.45 104.803 278.91 104.803 273.885C104.803 268.815 107.968 265.35 112.738 265.35C117.598 265.35 120.688 268.875 120.688 273.885C120.688 278.955 117.568 282.45 112.738 282.45ZM112.738 279.495C115.828 279.495 117.358 277.2 117.358 273.885C117.358 270.495 115.798 268.305 112.738 268.305C109.588 268.305 108.133 270.585 108.133 273.885C108.133 277.305 109.708 279.495 112.738 279.495ZM133.125 282H129.975V265.8H132.765V267.54C133.8 266.22 135.465 265.395 137.415 265.395C139.65 265.395 141.27 266.385 142.125 268.02C143.115 266.385 144.93 265.395 147.045 265.395C150.525 265.395 152.55 267.675 152.55 271.155L152.535 282H149.4L149.415 271.905C149.415 269.58 148.095 268.185 146.145 268.185C144.36 268.185 142.845 269.43 142.845 271.875L142.83 282H139.695L139.71 271.965C139.71 269.625 138.42 268.185 136.425 268.185C134.445 268.185 133.125 269.67 133.125 271.875V282ZM163.425 282.45C158.58 282.45 155.34 279.045 155.34 274.035C155.34 268.725 158.535 265.35 163.275 265.35C168.225 265.35 171.105 268.98 170.775 274.785H158.7C158.955 277.785 160.545 279.495 163.275 279.495C165.225 279.495 166.695 278.58 167.49 276.915L170.565 277.89C169.305 280.785 166.56 282.45 163.425 282.45ZM163.395 268.125C160.71 268.125 159.18 269.595 158.775 272.34H167.565C167.235 269.49 165.885 268.125 163.395 268.125ZM180.335 282.435C176.39 282.435 173.795 280.62 173.24 277.455L176.45 276.96C176.855 278.655 178.385 279.675 180.545 279.675C182.495 279.675 183.68 278.835 183.68 277.425C183.68 276.195 183.14 275.865 179.33 274.845C175.145 273.75 173.765 272.595 173.765 270.21C173.765 267.27 176.255 265.35 180.065 265.35C183.785 265.35 186.455 267.225 186.815 270.105L183.605 270.69C183.38 269.145 182.075 268.185 180.095 268.11C178.19 268.035 176.9 268.815 176.9 270.045C176.9 271.125 177.635 271.545 181.43 272.505C185.51 273.555 186.905 274.8 186.905 277.305C186.905 280.515 184.43 282.435 180.335 282.435ZM196.419 282.435C192.474 282.435 189.879 280.62 189.324 277.455L192.534 276.96C192.939 278.655 194.469 279.675 196.629 279.675C198.579 279.675 199.764 278.835 199.764 277.425C199.764 276.195 199.224 275.865 195.414 274.845C191.229 273.75 189.849 272.595 189.849 270.21C189.849 267.27 192.339 265.35 196.149 265.35C199.869 265.35 202.539 267.225 202.899 270.105L199.689 270.69C199.464 269.145 198.159 268.185 196.179 268.11C194.274 268.035 192.984 268.815 192.984 270.045C192.984 271.125 193.719 271.545 197.514 272.505C201.594 273.555 202.989 274.8 202.989 277.305C202.989 280.515 200.514 282.435 196.419 282.435ZM210.883 282.45C207.298 282.45 205.408 280.23 205.408 277.59C205.408 275.145 206.728 273.585 209.233 272.79C211.108 272.235 213.778 271.89 216.403 271.53C216.298 269.295 215.278 268.245 212.743 268.245C211.033 268.245 209.473 268.995 208.918 270.795L205.993 269.895C206.773 267.12 209.023 265.35 212.773 265.35C215.668 265.35 217.918 266.31 218.923 268.44C219.433 269.505 219.493 270.675 219.493 272.025V282H216.718V279.645C215.383 281.55 213.508 282.45 210.883 282.45ZM211.438 279.885C214.108 279.885 215.683 278.25 216.043 276.675C216.298 275.925 216.358 274.905 216.373 274.14C213.928 274.5 212.113 274.755 210.748 275.16C209.458 275.595 208.513 276.285 208.513 277.56C208.513 278.82 209.428 279.885 211.438 279.885ZM229.823 282.45C225.308 282.45 222.488 278.745 222.488 273.885C222.488 268.995 225.323 265.35 229.883 265.35C231.893 265.35 233.498 266.055 234.653 267.255V265.8H237.428V282.435C237.428 283.305 237.383 284.07 237.218 284.835C236.543 288.12 233.843 289.65 230.063 289.65C227.453 289.65 224.963 288.42 223.643 286.11L226.538 284.64C227.243 286.02 228.653 286.635 230.093 286.635C232.763 286.635 234.323 285.195 234.278 282.405V280.875C233.138 281.88 231.653 282.45 229.823 282.45ZM230.258 279.615C233.348 279.615 234.653 277.245 234.653 273.885C234.653 270.525 233.318 268.185 230.363 268.185C227.243 268.185 225.818 270.705 225.818 273.885C225.818 277.095 227.243 279.615 230.258 279.615ZM248.825 282.45C243.98 282.45 240.74 279.045 240.74 274.035C240.74 268.725 243.935 265.35 248.675 265.35C253.625 265.35 256.505 268.98 256.175 274.785H244.1C244.355 277.785 245.945 279.495 248.675 279.495C250.625 279.495 252.095 278.58 252.89 276.915L255.965 277.89C254.705 280.785 251.96 282.45 248.825 282.45ZM248.795 268.125C246.11 268.125 244.58 269.595 244.175 272.34H252.965C252.635 269.49 251.285 268.125 248.795 268.125ZM265.735 282.435C261.79 282.435 259.195 280.62 258.64 277.455L261.85 276.96C262.255 278.655 263.785 279.675 265.945 279.675C267.895 279.675 269.08 278.835 269.08 277.425C269.08 276.195 268.54 275.865 264.73 274.845C260.545 273.75 259.165 272.595 259.165 270.21C259.165 267.27 261.655 265.35 265.465 265.35C269.185 265.35 271.855 267.225 272.215 270.105L269.005 270.69C268.78 269.145 267.475 268.185 265.495 268.11C263.59 268.035 262.3 268.815 262.3 270.045C262.3 271.125 263.035 271.545 266.83 272.505C270.91 273.555 272.305 274.8 272.305 277.305C272.305 280.515 269.83 282.435 265.735 282.435ZM286.805 289.2H283.82L286.49 281.925L279.935 265.8H283.205L287.99 277.98L292.565 265.8H295.745L286.805 289.2ZM304.694 282.45C299.849 282.45 296.609 279.045 296.609 274.035C296.609 268.725 299.804 265.35 304.544 265.35C309.494 265.35 312.374 268.98 312.044 274.785H299.969C300.224 277.785 301.814 279.495 304.544 279.495C306.494 279.495 307.964 278.58 308.759 276.915L311.834 277.89C310.574 280.785 307.829 282.45 304.694 282.45ZM304.664 268.125C301.979 268.125 300.449 269.595 300.044 272.34H308.834C308.504 269.49 307.154 268.125 304.664 268.125ZM324.68 279.345V282C321.635 282.6 318.5 282.285 317.315 280.035C316.61 278.7 316.715 277.395 316.715 275.625V268.32H313.61V265.8H316.715V261.3H319.865V265.8H324.68V268.32H319.865V275.475C319.865 276.78 319.805 277.725 320.195 278.385C320.915 279.615 322.565 279.66 324.68 279.345ZM331.95 282H328.635V278.685H331.95V282Z" fill="#8D94A6"/>
<defs>
<clipPath id="clip0_2104_3034">
<rect width="223" height="229" fill="white" transform="translate(97)"/>
</clipPath>
</defs>
</svg>
