<svg viewBox="0 0 101 80" fill="none"
    xmlns="http://www.w3.org/2000/svg">
    <rect x="0.984375" width="100" height="80" fill="#007AFE"/>
    <path d="M44.436 25.7803C44.436 27.717 44.0781 29.3587 43.3624 30.7053C42.6466 32.0518 41.6776 33.0746 40.4553 33.7737C39.2385 34.4728 37.8731 34.8223 36.359 34.8223C34.8394 34.8223 33.4712 34.4699 32.2545 33.7651C31.0377 33.0603 30.0714 32.0375 29.3557 30.6967C28.6454 29.3501 28.2903 27.7113 28.2903 25.7803C28.2903 23.8435 28.6454 22.2019 29.3557 20.8553C30.0714 19.5088 31.0377 18.4859 32.2545 17.7869C33.4712 17.0878 34.8394 16.7383 36.359 16.7383C37.8731 16.7383 39.2385 17.0878 40.4553 17.7869C41.6776 18.4859 42.6466 19.5088 43.3624 20.8553C44.0781 22.2019 44.436 23.8435 44.436 25.7803ZM40.2571 25.7803C40.2571 24.6343 40.1002 23.6659 39.7864 22.8752C39.478 22.0844 39.0321 21.4856 38.4485 21.0788C37.8704 20.672 37.1739 20.4685 36.359 20.4685C35.5497 20.4685 34.8532 20.672 34.2696 21.0788C33.686 21.4856 33.2372 22.0844 32.9234 22.8752C32.6151 23.6659 32.4609 24.6343 32.4609 25.7803C32.4609 26.9263 32.6151 27.8947 32.9234 28.6854C33.2372 29.4762 33.686 30.075 34.2696 30.4818C34.8532 30.8886 35.5497 31.092 36.359 31.092C37.1739 31.092 37.8704 30.8886 38.4485 30.4818C39.0321 30.075 39.478 29.4762 39.7864 28.6854C40.1002 27.8947 40.2571 26.9263 40.2571 25.7803Z" fill="white"/>
    <path d="M50.7553 27.0524V34.5816H46.7168V21.3796H50.5571V23.8034H50.6975C50.9783 22.9955 51.4573 22.3623 52.1345 21.9039C52.8117 21.4398 53.6183 21.2077 54.5543 21.2077C55.4462 21.2077 56.2198 21.4169 56.875 21.8352C57.5357 22.2477 58.0477 22.8265 58.4111 23.5714C58.78 24.3105 58.9617 25.1758 58.9562 26.1671V34.5816H54.9177V26.9922C54.9232 26.2587 54.7442 25.6857 54.3809 25.2732C54.023 24.8606 53.5247 24.6543 52.886 24.6543C52.4621 24.6543 52.0877 24.7517 51.7629 24.9466C51.4435 25.1357 51.1958 25.4078 51.0196 25.7631C50.8489 26.1184 50.7608 26.5481 50.7553 27.0524Z" fill="white"/>
    <path d="M67.2803 34.8309C65.9534 34.8309 64.8082 34.5587 63.8447 34.0144C62.8867 33.4643 62.1489 32.6821 61.6313 31.6679C61.1193 30.648 60.8633 29.4361 60.8633 28.0322C60.8633 26.6684 61.1221 25.4766 61.6396 24.4567C62.1571 23.431 62.8867 22.6345 63.8281 22.0672C64.7696 21.4942 65.8791 21.2077 67.1564 21.2077C68.0593 21.2077 68.8852 21.3538 69.634 21.6461C70.3828 21.9383 71.0297 22.3709 71.5748 22.9439C72.1199 23.5169 72.5438 24.2246 72.8466 25.0669C73.1494 25.9035 73.3008 26.8633 73.3008 27.9462V28.9948H62.2755V26.5538H69.5432C69.5376 26.1069 69.4358 25.7087 69.2376 25.3591C69.0394 25.0096 68.7668 24.7374 68.42 24.5426C68.0786 24.342 67.6849 24.2418 67.239 24.2418C66.7875 24.2418 66.3828 24.3478 66.025 24.5598C65.6671 24.7661 65.3835 25.0497 65.1743 25.4107C64.9651 25.766 64.855 26.1699 64.844 26.6226V29.1066C64.844 29.6452 64.9458 30.1179 65.1495 30.5248C65.3532 30.9259 65.6423 31.2382 66.0167 31.4616C66.3911 31.6851 66.8371 31.7968 67.3546 31.7968C67.7125 31.7968 68.0373 31.7453 68.3291 31.6421C68.6209 31.539 68.8714 31.3871 69.0807 31.1866C69.2899 30.986 69.4468 30.7396 69.5514 30.4474L73.2596 30.5591C73.1054 31.4244 72.7668 32.1779 72.2437 32.8197C71.7262 33.4557 71.0462 33.9513 70.2038 34.3066C69.3615 34.6561 68.3869 34.8309 67.2803 34.8309Z" fill="white"/>
    <path d="M20.7207 44.4093H25.7833L30.0778 55.3078H30.276L34.5705 44.4093H39.6331V62.012H35.6524V51.1994H35.512L31.4487 61.9002H28.9051L24.8418 51.1392H24.7014V62.012H20.7207V44.4093Z" fill="white"/>
    <path d="M47.9985 62.2612C46.6661 62.2612 45.5209 61.9776 44.5629 61.4103C43.6104 60.8373 42.8753 60.0408 42.3578 59.0209C41.8458 57.9952 41.5897 56.8062 41.5897 55.4539C41.5897 54.0959 41.8458 52.9069 42.3578 51.887C42.8753 50.8613 43.6104 50.0648 44.5629 49.4976C45.5209 48.9246 46.6661 48.6381 47.9985 48.6381C49.3309 48.6381 50.4733 48.9246 51.4258 49.4976C52.3838 50.0648 53.1189 50.8613 53.6309 51.887C54.1484 52.9069 54.4072 54.0959 54.4072 55.4539C54.4072 56.8062 54.1484 57.9952 53.6309 59.0209C53.1189 60.0408 52.3838 60.8373 51.4258 61.4103C50.4733 61.9776 49.3309 62.2612 47.9985 62.2612ZM48.0232 59.0897C48.5078 59.0897 48.9179 58.9349 49.2538 58.6255C49.5896 58.3161 49.8457 57.8863 50.0218 57.3363C50.2035 56.7862 50.2944 56.1501 50.2944 55.4282C50.2944 54.6947 50.2035 54.0529 50.0218 53.5029C49.8457 52.9528 49.5896 52.523 49.2538 52.2136C48.9179 51.9042 48.5078 51.7495 48.0232 51.7495C47.5222 51.7495 47.0983 51.9042 46.7514 52.2136C46.4101 52.523 46.1485 52.9528 45.9668 53.5029C45.7906 54.0529 45.7026 54.6947 45.7026 55.4282C45.7026 56.1501 45.7906 56.7862 45.9668 57.3363C46.1485 57.8863 46.4101 58.3161 46.7514 58.6255C47.0983 58.9349 47.5222 59.0897 48.0232 59.0897Z" fill="white"/>
    <path d="M68.2667 48.81L63.9144 62.012H59.2895L54.9454 48.81H59.1987L61.5359 57.9035H61.668L64.0135 48.81H68.2667Z" fill="white"/>
    <path d="M75.2302 62.2612C73.9033 62.2612 72.7581 61.9891 71.7946 61.4447C70.8365 60.8946 70.0988 60.1125 69.5812 59.0982C69.0692 58.0783 68.8132 56.8664 68.8132 55.4625C68.8132 54.0988 69.0719 52.9069 69.5895 51.887C70.107 50.8613 70.8365 50.0648 71.778 49.4976C72.7195 48.9246 73.8289 48.6381 75.1063 48.6381C76.0092 48.6381 76.8351 48.7842 77.5839 49.0764C78.3327 49.3686 78.9796 49.8013 79.5247 50.3743C80.0698 50.9473 80.4937 51.6549 80.7965 52.4972C81.0993 53.3338 81.2507 54.2936 81.2507 55.3766V56.4252H70.2254V53.9842H77.493C77.4875 53.5372 77.3857 53.139 77.1875 52.7895C76.9893 52.4399 76.7167 52.1678 76.3699 51.9729C76.0285 51.7724 75.6348 51.6721 75.1889 51.6721C74.7374 51.6721 74.3327 51.7781 73.9748 51.9901C73.617 52.1964 73.3334 52.48 73.1242 52.841C72.915 53.1963 72.8049 53.6003 72.7939 54.0529V56.5369C72.7939 57.0755 72.8957 57.5483 73.0994 57.9551C73.3031 58.3562 73.5922 58.6685 73.9666 58.892C74.341 59.1154 74.7869 59.2272 75.3045 59.2272C75.6624 59.2272 75.9872 59.1756 76.279 59.0725C76.5708 58.9693 76.8213 58.8175 77.0306 58.6169C77.2398 58.4164 77.3967 58.17 77.5013 57.8777L81.2094 57.9895C81.0553 58.8547 80.7167 59.6082 80.1936 60.25C79.6761 60.886 78.9961 61.3817 78.1537 61.7369C77.3114 62.0865 76.3368 62.2612 75.2302 62.2612Z" fill="white"/>
</svg>
